<svg width="314" height="144" viewBox="0 0 314 144" fill="none" xmlns="http://www.w3.org/2000/svg">
<g opacity="0.7">
<g filter="url(#filter0_d_94_20)">
<rect x="105.137" y="2" width="136.89" height="115.721" rx="5.64494" fill="white" shape-rendering="crispEdges"/>
<path d="M130.424 23.834V20.1295C130.424 19.479 130.418 18.9608 130.407 18.5749C130.396 18.178 130.385 17.8859 130.374 17.6984C130.363 17.5 130.352 17.3842 130.341 17.3511L129.217 17.1196L129.266 16.4912H132.408L132.458 17.1196L131.433 17.3511C131.433 17.3842 131.422 17.5 131.4 17.6984C131.389 17.8859 131.378 18.178 131.367 18.5749C131.356 18.9608 131.35 19.479 131.35 20.1295V24.0655C131.35 24.4073 131.35 24.7656 131.35 25.1405C131.35 25.5043 131.356 25.8792 131.367 26.2651H130.622L124.536 18.0788H124.9V22.511C124.9 23.1725 124.906 23.7072 124.917 24.1151C124.928 24.512 124.939 24.8042 124.95 24.9916C124.972 25.1791 124.988 25.2948 124.999 25.3389L126.124 25.5705L126.074 26.1989H122.899L122.85 25.5705L123.858 25.3389C123.869 25.2948 123.88 25.1791 123.891 24.9916C123.913 24.8042 123.93 24.512 123.941 24.1151C123.952 23.7072 123.958 23.1725 123.958 22.511V19.683C123.958 19.1868 123.952 18.7789 123.941 18.4592C123.93 18.1394 123.919 17.8914 123.908 17.715C123.897 17.5386 123.88 17.4173 123.858 17.3511L122.85 17.1196L122.899 16.4912H125.165L130.722 23.834H130.424ZM137.204 26.3312C136.565 26.3312 135.986 26.1879 135.468 25.9012C134.961 25.6146 134.553 25.2066 134.244 24.6774C133.946 24.1372 133.798 23.5032 133.798 22.7756C133.798 21.9928 133.958 21.3147 134.277 20.7414C134.597 20.1681 135.016 19.7271 135.534 19.4184C136.052 19.0986 136.609 18.9443 137.204 18.9553C138.064 18.9663 138.737 19.253 139.222 19.8153C139.707 20.3776 139.95 21.1714 139.95 22.1967V22.4944H134.873V21.7668H138.858L138.676 21.9817V21.6344C138.676 20.995 138.533 20.5044 138.246 20.1626C137.96 19.8208 137.568 19.6499 137.072 19.6499C136.763 19.6499 136.466 19.7436 136.179 19.931C135.892 20.1074 135.661 20.3831 135.485 20.7579C135.308 21.1218 135.22 21.5848 135.22 22.1471V22.3456C135.22 23.2497 135.44 23.9553 135.881 24.4624C136.333 24.9696 136.912 25.2232 137.618 25.2232C138.004 25.2232 138.351 25.146 138.66 24.9916C138.969 24.8373 139.266 24.5892 139.553 24.2474L139.966 24.6278C139.658 25.2011 139.266 25.6311 138.792 25.9178C138.318 26.1934 137.789 26.3312 137.204 26.3312ZM144.15 26.2651L141.223 19.931L140.446 19.683L140.479 19.0876H143.704L143.737 19.683L142.712 19.931L144.977 24.9586L144.547 24.9751L146.631 19.931L145.606 19.683L145.639 19.0876H148.384L148.417 19.683L147.64 19.931L144.647 26.2651H144.15ZM152.271 26.3312C151.631 26.3312 151.052 26.1879 150.534 25.9012C150.027 25.6146 149.619 25.2066 149.31 24.6774C149.013 24.1372 148.864 23.5032 148.864 22.7756C148.864 21.9928 149.024 21.3147 149.343 20.7414C149.663 20.1681 150.082 19.7271 150.6 19.4184C151.118 19.0986 151.675 18.9443 152.271 18.9553C153.13 18.9663 153.803 19.253 154.288 19.8153C154.773 20.3776 155.016 21.1714 155.016 22.1967V22.4944H149.939V21.7668H153.924L153.742 21.9817V21.6344C153.742 20.995 153.599 20.5044 153.312 20.1626C153.026 19.8208 152.634 19.6499 152.138 19.6499C151.829 19.6499 151.532 19.7436 151.245 19.931C150.959 20.1074 150.727 20.3831 150.551 20.7579C150.374 21.1218 150.286 21.5848 150.286 22.1471V22.3456C150.286 23.2497 150.506 23.9553 150.947 24.4624C151.4 24.9696 151.978 25.2232 152.684 25.2232C153.07 25.2232 153.417 25.146 153.726 24.9916C154.035 24.8373 154.332 24.5892 154.619 24.2474L155.032 24.6278C154.724 25.2011 154.332 25.6311 153.858 25.9178C153.384 26.1934 152.855 26.3312 152.271 26.3312ZM156.157 26.1989L156.107 25.6035L157.133 25.3555C157.144 25.3004 157.155 25.2011 157.166 25.0578C157.177 24.9145 157.182 24.7215 157.182 24.479C157.193 24.2364 157.199 23.9387 157.199 23.5859L157.215 22.296C157.215 21.9321 157.199 21.5738 157.166 21.221C157.144 20.8682 157.116 20.587 157.083 20.3776L156.025 20.146V19.6003L158.241 18.9884L158.472 19.2199L158.406 20.6091L158.456 20.6256C158.786 19.9862 159.123 19.5562 159.465 19.3357C159.806 19.1041 160.126 18.9884 160.424 18.9884C160.677 18.9884 160.887 19.0545 161.052 19.1868C161.229 19.3081 161.317 19.4955 161.317 19.7491C161.317 20.0137 161.223 20.2177 161.036 20.361C160.859 20.4933 160.633 20.5595 160.358 20.5595C160.159 20.5595 159.966 20.5154 159.779 20.4272C159.602 20.339 159.431 20.2177 159.266 20.0633L159.564 20.1626C159.354 20.2949 159.156 20.4823 158.968 20.7249C158.781 20.9564 158.61 21.2486 158.456 21.6014L158.472 23.1394C158.483 23.415 158.494 23.7017 158.505 23.9994C158.516 24.2971 158.527 24.5672 158.538 24.8097C158.549 25.0413 158.56 25.2232 158.571 25.3555L160.01 25.5705L159.977 26.1989H156.157ZM167.337 25.1736C167.127 25.5374 166.84 25.8241 166.477 26.0335C166.113 26.232 165.732 26.3312 165.335 26.3312C164.663 26.3312 164.112 26.1272 163.682 25.7193C163.252 25.3114 163.037 24.6995 163.037 23.8836L163.086 19.931H161.929V19.5837L164.062 17.6488H164.376L164.343 19.5507L164.327 23.619C164.327 24.1923 164.448 24.6168 164.69 24.8924C164.944 25.168 165.297 25.3059 165.749 25.3059C166.002 25.3059 166.234 25.2563 166.444 25.157C166.664 25.0578 166.862 24.9255 167.039 24.7601L167.337 25.1736ZM163.748 19.931V19.1041H166.84V19.931H163.748ZM167.75 26.1989L167.717 25.6035L168.742 25.3555C168.764 25.2342 168.781 25.0523 168.792 24.8097C168.803 24.5561 168.808 24.2199 168.808 23.8009C168.819 23.382 168.825 22.8693 168.825 22.2629V20.1956C168.825 19.8208 168.819 19.4184 168.808 18.9884C168.808 18.5584 168.803 18.1449 168.792 17.748C168.792 17.3401 168.786 16.9873 168.775 16.6896C168.775 16.3919 168.77 16.1935 168.759 16.0942L167.535 15.9289L167.502 15.3997L169.834 14.7216L170.148 14.9531C170.137 15.2949 170.126 15.6367 170.115 15.9785C170.104 16.3203 170.093 16.6896 170.082 17.0865C170.082 17.4724 170.076 17.9134 170.065 18.4096C170.065 18.9057 170.065 19.479 170.065 20.1295L170.115 20.146C170.501 19.7271 170.876 19.4239 171.24 19.2364C171.614 19.049 172.022 18.9553 172.463 18.9553C172.871 18.9553 173.252 19.06 173.604 19.2695C173.968 19.479 174.26 19.7987 174.481 20.2287C174.712 20.6477 174.828 21.1879 174.828 21.8494V23.6355C174.828 24.0324 174.839 24.3908 174.861 24.7105C174.883 25.0192 174.905 25.2342 174.927 25.3555L175.953 25.6035L175.92 26.1989H172.596L172.546 25.6035L173.505 25.3555C173.516 25.2673 173.527 25.157 173.538 25.0247C173.549 24.8924 173.555 24.727 173.555 24.5286C173.566 24.3191 173.571 24.06 173.571 23.7513V21.9652C173.571 21.4911 173.489 21.1107 173.323 20.8241C173.169 20.5264 172.965 20.3114 172.711 20.1791C172.458 20.0358 172.188 19.9641 171.901 19.9641C171.548 19.9641 171.212 20.0578 170.892 20.2453C170.572 20.4217 170.302 20.6697 170.082 20.9895V23.4702C170.082 23.9773 170.087 24.3963 170.098 24.727C170.12 25.0578 170.142 25.2673 170.165 25.3555L171.173 25.6035L171.14 26.1989H167.75ZM180.435 26.3312C179.795 26.3312 179.216 26.1879 178.698 25.9012C178.191 25.6146 177.783 25.2066 177.474 24.6774C177.177 24.1372 177.028 23.5032 177.028 22.7756C177.028 21.9928 177.188 21.3147 177.507 20.7414C177.827 20.1681 178.246 19.7271 178.764 19.4184C179.282 19.0986 179.839 18.9443 180.435 18.9553C181.295 18.9663 181.967 19.253 182.452 19.8153C182.937 20.3776 183.18 21.1714 183.18 22.1967V22.4944H178.103V21.7668H182.088L181.906 21.9817V21.6344C181.906 20.995 181.763 20.5044 181.476 20.1626C181.19 19.8208 180.798 19.6499 180.302 19.6499C179.994 19.6499 179.696 19.7436 179.409 19.931C179.123 20.1074 178.891 20.3831 178.715 20.7579C178.538 21.1218 178.45 21.5848 178.45 22.1471V22.3456C178.45 23.2497 178.671 23.9553 179.112 24.4624C179.564 24.9696 180.142 25.2232 180.848 25.2232C181.234 25.2232 181.581 25.146 181.89 24.9916C182.199 24.8373 182.496 24.5892 182.783 24.2474L183.196 24.6278C182.888 25.2011 182.496 25.6311 182.022 25.9178C181.548 26.1934 181.019 26.3312 180.435 26.3312ZM184.238 26.1989L184.205 25.587L185.28 25.3555C185.302 25.2452 185.319 25.0633 185.33 24.8097C185.341 24.5561 185.346 24.2199 185.346 23.8009C185.357 23.382 185.363 22.8693 185.363 22.2629V20.1956C185.363 19.7767 185.357 19.3467 185.346 18.9057C185.346 18.4647 185.341 18.0512 185.33 17.6653C185.33 17.2684 185.324 16.9322 185.313 16.6565C185.313 16.3699 185.308 16.1824 185.297 16.0942L184.073 15.9289L184.04 15.3997L186.405 14.7216L186.719 14.9531C186.708 15.4162 186.697 15.8793 186.686 16.3423C186.675 16.8054 186.664 17.318 186.653 17.8803C186.653 18.4426 186.653 19.1207 186.653 19.9145L186.636 22.5771C186.636 23.2276 186.642 23.8175 186.653 24.3467C186.675 24.8649 186.697 25.2011 186.719 25.3555L187.794 25.587L187.761 26.1989H184.238ZM192.325 26.3312C191.686 26.3312 191.107 26.1879 190.589 25.9012C190.082 25.6146 189.674 25.2066 189.365 24.6774C189.067 24.1372 188.919 23.5032 188.919 22.7756C188.919 21.9928 189.078 21.3147 189.398 20.7414C189.718 20.1681 190.137 19.7271 190.655 19.4184C191.173 19.0986 191.73 18.9443 192.325 18.9553C193.185 18.9663 193.858 19.253 194.343 19.8153C194.828 20.3776 195.071 21.1714 195.071 22.1967V22.4944H189.994V21.7668H193.979L193.797 21.9817V21.6344C193.797 20.995 193.654 20.5044 193.367 20.1626C193.081 19.8208 192.689 19.6499 192.193 19.6499C191.884 19.6499 191.587 19.7436 191.3 19.931C191.013 20.1074 190.782 20.3831 190.605 20.7579C190.429 21.1218 190.341 21.5848 190.341 22.1471V22.3456C190.341 23.2497 190.561 23.9553 191.002 24.4624C191.454 24.9696 192.033 25.2232 192.739 25.2232C193.125 25.2232 193.472 25.146 193.781 24.9916C194.089 24.8373 194.387 24.5892 194.674 24.2474L195.087 24.6278C194.778 25.2011 194.387 25.6311 193.913 25.9178C193.439 26.1934 192.91 26.3312 192.325 26.3312ZM198.907 26.3312C198.5 26.3312 198.092 26.2871 197.684 26.1989C197.276 26.0997 196.928 25.9729 196.642 25.8185L196.559 24.049H197.369L197.7 25.2397C198.086 25.5043 198.527 25.6366 199.023 25.6366C199.398 25.6366 199.701 25.5484 199.933 25.372C200.164 25.1846 200.28 24.9365 200.28 24.6278C200.28 24.3412 200.175 24.0931 199.966 23.8836C199.756 23.6631 199.348 23.4261 198.742 23.1725C197.959 22.8307 197.408 22.5054 197.088 22.1967C196.769 21.877 196.609 21.4691 196.609 20.9729C196.609 20.576 196.724 20.2287 196.956 19.931C197.199 19.6223 197.529 19.3853 197.948 19.2199C198.367 19.0435 198.852 18.9553 199.404 18.9553C199.712 18.9553 200.027 18.9829 200.346 19.038C200.666 19.0931 200.931 19.1648 201.14 19.253L201.322 20.9729H200.545L200.148 19.8484C200.038 19.7822 199.905 19.7326 199.751 19.6995C199.597 19.6554 199.431 19.6334 199.255 19.6334C198.869 19.6334 198.56 19.7271 198.329 19.9145C198.097 20.0909 197.981 20.3224 197.981 20.6091C197.981 20.9399 198.108 21.21 198.362 21.4195C198.615 21.6179 199.062 21.866 199.701 22.1637C200.429 22.4944 200.936 22.8197 201.223 23.1394C201.509 23.4591 201.653 23.845 201.653 24.2971C201.653 24.8924 201.394 25.383 200.875 25.7689C200.357 26.1438 199.701 26.3312 198.907 26.3312ZM205.556 26.3312C205.148 26.3312 204.74 26.2871 204.332 26.1989C203.924 26.0997 203.577 25.9729 203.29 25.8185L203.207 24.049H204.018L204.348 25.2397C204.734 25.5043 205.175 25.6366 205.671 25.6366C206.046 25.6366 206.35 25.5484 206.581 25.372C206.813 25.1846 206.928 24.9365 206.928 24.6278C206.928 24.3412 206.824 24.0931 206.614 23.8836C206.405 23.6631 205.997 23.4261 205.39 23.1725C204.608 22.8307 204.056 22.5054 203.737 22.1967C203.417 21.877 203.257 21.4691 203.257 20.9729C203.257 20.576 203.373 20.2287 203.604 19.931C203.847 19.6223 204.178 19.3853 204.596 19.2199C205.015 19.0435 205.501 18.9553 206.052 18.9553C206.361 18.9553 206.675 18.9829 206.994 19.038C207.314 19.0931 207.579 19.1648 207.788 19.253L207.97 20.9729H207.193L206.796 19.8484C206.686 19.7822 206.553 19.7326 206.399 19.6995C206.245 19.6554 206.079 19.6334 205.903 19.6334C205.517 19.6334 205.208 19.7271 204.977 19.9145C204.745 20.0909 204.63 20.3224 204.63 20.6091C204.63 20.9399 204.756 21.21 205.01 21.4195C205.264 21.6179 205.71 21.866 206.35 22.1637C207.077 22.4944 207.584 22.8197 207.871 23.1394C208.158 23.4591 208.301 23.845 208.301 24.2971C208.301 24.8924 208.042 25.383 207.524 25.7689C207.006 26.1438 206.35 26.3312 205.556 26.3312Z" fill="#232323"/>
<rect x="110.782" y="33.7528" width="125.6" height="26.1079" rx="5.64494" fill="#F2F6FF"/>
<path d="M128.836 52.3068L128.803 51.6783L129.812 51.4468C129.834 51.4027 129.851 51.2924 129.862 51.116C129.884 50.9286 129.895 50.664 129.895 50.3222C129.906 49.9804 129.911 49.5449 129.911 49.0157V45.9066C129.911 45.3663 129.906 44.9253 129.895 44.5836C129.895 44.2307 129.884 43.9661 129.862 43.7897C129.851 43.6023 129.834 43.4921 129.812 43.459L128.803 43.2274L128.836 42.599H132.392L132.442 43.2274L131.416 43.459C131.394 43.4921 131.372 43.6023 131.35 43.7897C131.339 43.9661 131.328 44.2307 131.317 44.5836C131.317 44.9253 131.317 45.3663 131.317 45.9066V49.0157C131.317 49.5449 131.317 49.9804 131.317 50.3222C131.328 50.664 131.339 50.9286 131.35 51.116C131.372 51.2924 131.394 51.4027 131.416 51.4468L132.442 51.6783L132.392 52.3068H128.836ZM122.883 52.3068L122.833 51.6783L123.858 51.4468C123.88 51.3917 123.891 51.2649 123.891 51.0664C123.902 50.868 123.908 50.5978 123.908 50.2561C123.919 49.9143 123.925 49.5008 123.925 49.0157V45.9066C123.925 45.4104 123.919 44.9915 123.908 44.6497C123.908 44.2969 123.902 44.0213 123.891 43.8228C123.891 43.6244 123.88 43.5031 123.858 43.459L122.833 43.2274L122.883 42.599H126.405L126.438 43.2274L125.429 43.459C125.407 43.4921 125.385 43.6023 125.363 43.7897C125.352 43.9661 125.341 44.2307 125.33 44.5836C125.33 44.9253 125.33 45.3663 125.33 45.9066V49.0157C125.33 49.5449 125.33 49.9804 125.33 50.3222C125.341 50.664 125.352 50.9286 125.363 51.116C125.385 51.2924 125.407 51.4027 125.429 51.4468L126.438 51.6783L126.405 52.3068H122.883ZM125.132 47.8084V46.8327C125.352 46.8437 125.672 46.8548 126.091 46.8658C126.521 46.8768 127.039 46.8823 127.646 46.8823C128.241 46.8823 128.748 46.8768 129.167 46.8658C129.586 46.8548 129.895 46.8437 130.093 46.8327V47.8084C129.851 47.7864 129.536 47.7699 129.15 47.7588C128.765 47.7478 128.263 47.7423 127.646 47.7423C127.006 47.7423 126.488 47.7478 126.091 47.7588C125.694 47.7699 125.374 47.7864 125.132 47.8084ZM137.436 52.4391C136.719 52.4391 136.091 52.2847 135.551 51.976C135.021 51.6673 134.608 51.2373 134.31 50.686C134.013 50.1238 133.864 49.4843 133.864 48.7676C133.864 48.0179 134.029 47.3674 134.36 46.8162C134.691 46.2649 135.132 45.8349 135.683 45.5262C136.234 45.2175 136.841 45.0632 137.502 45.0632C138.186 45.0632 138.781 45.2175 139.288 45.5262C139.806 45.8239 140.203 46.2484 140.479 46.7996C140.766 47.3399 140.909 47.9738 140.909 48.7015C140.909 49.3961 140.755 50.0245 140.446 50.5868C140.137 51.1491 139.718 51.6011 139.189 51.9429C138.671 52.2737 138.086 52.4391 137.436 52.4391ZM137.601 51.6618C137.976 51.6618 138.301 51.5515 138.577 51.331C138.853 51.0995 139.068 50.7853 139.222 50.3884C139.376 49.9804 139.454 49.5174 139.454 48.9992C139.454 48.051 139.255 47.2847 138.858 46.7004C138.472 46.105 137.96 45.8074 137.32 45.8074C136.725 45.8074 136.245 46.0554 135.881 46.5516C135.529 47.0477 135.352 47.7037 135.352 48.5196C135.352 49.137 135.446 49.6827 135.633 50.1568C135.832 50.6309 136.102 51.0003 136.444 51.2649C136.786 51.5295 137.171 51.6618 137.601 51.6618ZM149.889 52.3729L147.359 46.0389L146.515 45.7908L146.548 45.1955H149.591L149.624 45.7908L148.764 46.0389L150.683 51.0664L150.269 51.083L152.237 46.0389L151.377 45.7908L151.411 45.1955H153.974L154.007 45.7908L153.23 46.0389L150.402 52.3729H149.889ZM145.077 52.3729L142.397 46.0389L141.62 45.7908L141.653 45.1955H144.713L144.746 45.7908L143.902 46.0389L145.953 51.0664L145.457 51.083L147.64 45.89L148.086 46.9154L145.589 52.3729H145.077ZM157.96 52.4391C157.32 52.4391 156.741 52.2957 156.223 52.0091C155.716 51.7224 155.308 51.3145 154.999 50.7853C154.702 50.245 154.553 49.6111 154.553 48.8834C154.553 48.1006 154.713 47.4226 155.032 46.8492C155.352 46.2759 155.771 45.8349 156.289 45.5262C156.807 45.2065 157.364 45.0521 157.96 45.0632C158.82 45.0742 159.492 45.3608 159.977 45.9231C160.462 46.4854 160.705 47.2792 160.705 48.3046V48.6023H155.628V47.8746H159.613L159.431 48.0896V47.7423C159.431 47.1028 159.288 46.6122 159.001 46.2704C158.715 45.9286 158.323 45.7577 157.827 45.7577C157.519 45.7577 157.221 45.8515 156.934 46.0389C156.648 46.2153 156.416 46.4909 156.24 46.8658C156.063 47.2296 155.975 47.6927 155.975 48.255V48.4534C155.975 49.3575 156.196 50.0631 156.637 50.5703C157.089 51.0774 157.667 51.331 158.373 51.331C158.759 51.331 159.106 51.2538 159.415 51.0995C159.724 50.9451 160.021 50.6971 160.308 50.3553L160.721 50.7357C160.413 51.309 160.021 51.739 159.547 52.0256C159.073 52.3013 158.544 52.4391 157.96 52.4391ZM164.905 52.3729L161.978 46.0389L161.201 45.7908L161.234 45.1955H164.459L164.492 45.7908L163.467 46.0389L165.732 51.0664L165.302 51.083L167.386 46.0389L166.361 45.7908L166.394 45.1955H169.139L169.172 45.7908L168.395 46.0389L165.402 52.3729H164.905ZM173.026 52.4391C172.386 52.4391 171.807 52.2957 171.289 52.0091C170.782 51.7224 170.374 51.3145 170.065 50.7853C169.768 50.245 169.619 49.6111 169.619 48.8834C169.619 48.1006 169.779 47.4226 170.098 46.8492C170.418 46.2759 170.837 45.8349 171.355 45.5262C171.873 45.2065 172.43 45.0521 173.026 45.0632C173.886 45.0742 174.558 45.3608 175.043 45.9231C175.528 46.4854 175.771 47.2792 175.771 48.3046V48.6023H170.694V47.8746H174.679L174.497 48.0896V47.7423C174.497 47.1028 174.354 46.6122 174.067 46.2704C173.781 45.9286 173.389 45.7577 172.893 45.7577C172.585 45.7577 172.287 45.8515 172 46.0389C171.714 46.2153 171.482 46.4909 171.306 46.8658C171.129 47.2296 171.041 47.6927 171.041 48.255V48.4534C171.041 49.3575 171.262 50.0631 171.703 50.5703C172.155 51.0774 172.733 51.331 173.439 51.331C173.825 51.331 174.172 51.2538 174.481 51.0995C174.79 50.9451 175.087 50.6971 175.374 50.3553L175.787 50.7357C175.479 51.309 175.087 51.739 174.613 52.0256C174.139 52.3013 173.61 52.4391 173.026 52.4391ZM176.912 52.3068L176.862 51.7114L177.888 51.4633C177.899 51.4082 177.91 51.309 177.921 51.1656C177.932 51.0223 177.937 50.8294 177.937 50.5868C177.948 50.3443 177.954 50.0466 177.954 49.6938L177.97 48.4038C177.97 48.04 177.954 47.6817 177.921 47.3288C177.899 46.976 177.871 46.6949 177.838 46.4854L176.78 46.2539V45.7081L178.996 45.0962L179.227 45.3278L179.161 46.7169L179.211 46.7335C179.542 46.094 179.878 45.664 180.22 45.4435C180.561 45.212 180.881 45.0962 181.179 45.0962C181.432 45.0962 181.642 45.1624 181.807 45.2947C181.984 45.416 182.072 45.6034 182.072 45.857C182.072 46.1216 181.978 46.3255 181.791 46.4689C181.614 46.6012 181.388 46.6673 181.113 46.6673C180.914 46.6673 180.721 46.6232 180.534 46.535C180.357 46.4468 180.187 46.3255 180.021 46.1712L180.319 46.2704C180.109 46.4027 179.911 46.5902 179.723 46.8327C179.536 47.0642 179.365 47.3564 179.211 47.7092L179.227 49.2472C179.238 49.5229 179.249 49.8095 179.26 50.1072C179.271 50.4049 179.282 50.675 179.293 50.9176C179.304 51.1491 179.316 51.331 179.327 51.4633L180.765 51.6783L180.732 52.3068H176.912Z" fill="#0F4AC0"/>
<path d="M130.11 78.4973C129.79 78.4642 129.503 78.4422 129.25 78.4311C129.007 78.4201 128.776 78.4146 128.555 78.4146H122.883L122.833 77.7862L123.858 77.5546C123.88 77.4995 123.891 77.3727 123.891 77.1743C123.902 76.9758 123.908 76.7057 123.908 76.3639C123.919 76.0221 123.925 75.6087 123.925 75.1236V72.0144C123.925 71.5183 123.919 71.0993 123.908 70.7576C123.908 70.4047 123.902 70.1291 123.891 69.9307C123.891 69.7322 123.88 69.6109 123.858 69.5668L122.833 69.3353L122.883 68.7069H128.191C128.346 68.7069 128.506 68.7069 128.671 68.7069C128.847 68.6958 129.035 68.6848 129.233 68.6738C129.432 68.6628 129.636 68.6517 129.845 68.6407L130.176 70.8237L129.432 70.9395L128.886 69.5503C128.798 69.5282 128.698 69.5172 128.588 69.5172C128.478 69.5062 128.362 69.5007 128.241 69.5007H126.372C126.163 69.5007 125.975 69.5062 125.81 69.5172C125.655 69.5172 125.501 69.5282 125.347 69.5503C125.347 69.5944 125.341 69.7212 125.33 69.9307C125.33 70.1291 125.325 70.3606 125.314 70.6253C125.314 70.8899 125.314 71.1545 125.314 71.4191V75.8843C125.314 76.1048 125.314 76.3308 125.314 76.5624C125.325 76.7829 125.33 76.9813 125.33 77.1577C125.341 77.3341 125.347 77.4554 125.347 77.5216C125.501 77.5326 125.661 77.5436 125.826 77.5546C126.003 77.5657 126.196 77.5712 126.405 77.5712H128.009C128.252 77.5712 128.45 77.5712 128.605 77.5712C128.759 77.5602 128.88 77.5491 128.969 77.5381C129.057 77.5271 129.128 77.5161 129.184 77.505L130.044 75.9339L130.788 76.0828L130.11 78.4973ZM128.274 75.0243L128.076 73.8998C128.02 73.8777 127.927 73.8612 127.794 73.8501C127.662 73.8391 127.502 73.8336 127.315 73.8336H126.058C125.915 73.8336 125.76 73.8391 125.595 73.8501C125.429 73.8612 125.253 73.8722 125.066 73.8832V72.9736C125.253 72.9847 125.429 72.9957 125.595 73.0067C125.76 73.0067 125.915 73.0067 126.058 73.0067H127.315C127.502 73.0067 127.662 73.0012 127.794 72.9902C127.927 72.9791 128.02 72.9681 128.076 72.9571L128.274 71.816H128.985V75.0243H128.274ZM134.542 78.4808L131.615 72.1467L130.837 71.8987L130.87 71.3033H134.095L134.128 71.8987L133.103 72.1467L135.369 77.1743L134.939 77.1908L137.023 72.1467L135.997 71.8987L136.03 71.3033H138.776L138.809 71.8987L138.031 72.1467L135.038 78.4808H134.542ZM142.662 78.5469C142.023 78.5469 141.444 78.4036 140.925 78.1169C140.418 77.8303 140.01 77.4223 139.702 76.8931C139.404 76.3529 139.255 75.7189 139.255 74.9913C139.255 74.2085 139.415 73.5304 139.735 72.9571C140.054 72.3838 140.473 71.9428 140.992 71.6341C141.51 71.3143 142.067 71.16 142.662 71.171C143.522 71.182 144.194 71.4687 144.68 72.031C145.165 72.5933 145.407 73.3871 145.407 74.4124V74.7101H140.33V73.9824H144.316L144.134 74.1974V73.8501C144.134 73.2107 143.991 72.7201 143.704 72.3783C143.417 72.0365 143.026 71.8656 142.53 71.8656C142.221 71.8656 141.923 71.9593 141.637 72.1467C141.35 72.3231 141.118 72.5988 140.942 72.9736C140.766 73.3375 140.677 73.8005 140.677 74.3628V74.5613C140.677 75.4653 140.898 76.171 141.339 76.6781C141.791 77.1853 142.37 77.4389 143.075 77.4389C143.461 77.4389 143.809 77.3617 144.117 77.2073C144.426 77.053 144.724 76.8049 145.01 76.4631L145.424 76.8435C145.115 77.4168 144.724 77.8468 144.25 78.1335C143.776 78.4091 143.246 78.5469 142.662 78.5469ZM146.515 78.4146L146.482 77.8192L147.508 77.5712C147.519 77.494 147.524 77.3893 147.524 77.257C147.535 77.1247 147.546 76.9427 147.557 76.7112C147.568 76.4797 147.574 76.1765 147.574 75.8016L147.59 74.5282C147.59 74.1644 147.574 73.806 147.541 73.4532C147.519 73.0894 147.491 72.8027 147.458 72.5933L146.4 72.3617V71.816L148.616 71.2041L148.897 71.4687L148.814 72.3452L148.864 72.3617C149.25 71.9428 149.63 71.6396 150.005 71.4521C150.38 71.2647 150.788 71.171 151.229 71.171C151.637 71.171 152.017 71.2757 152.37 71.4852C152.734 71.6837 153.026 71.9924 153.246 72.4113C153.478 72.8303 153.594 73.365 153.594 74.0155V75.8512C153.594 76.2481 153.599 76.6065 153.61 76.9262C153.632 77.2459 153.66 77.4609 153.693 77.5712L154.718 77.8192L154.669 78.4146H151.344L151.311 77.8192L152.271 77.5712C152.282 77.483 152.293 77.3727 152.304 77.2404C152.315 77.1081 152.32 76.9427 152.32 76.7443C152.331 76.5348 152.337 76.2757 152.337 75.967V74.1809C152.337 73.6848 152.248 73.2934 152.072 73.0067C151.907 72.709 151.697 72.4995 151.444 72.3783C151.19 72.246 150.931 72.1798 150.666 72.1798C150.302 72.1798 149.961 72.2735 149.641 72.461C149.332 72.6374 149.068 72.8854 148.847 73.2052V75.6859C148.847 76.193 148.853 76.6065 148.864 76.9262C148.886 77.2349 148.908 77.4499 148.93 77.5712L149.955 77.8192L149.906 78.4146H146.515ZM161.515 78.5469C161.107 78.5469 160.699 78.5028 160.291 78.4146C159.883 78.3154 159.536 78.1886 159.25 78.0342L159.167 76.2647H159.977L160.308 77.4554C160.694 77.72 161.135 77.8523 161.631 77.8523C162.006 77.8523 162.309 77.7641 162.541 77.5877C162.772 77.4003 162.888 77.1522 162.888 76.8435C162.888 76.5569 162.783 76.3088 162.574 76.0993C162.364 75.8788 161.956 75.6418 161.35 75.3882C160.567 75.0464 160.016 74.7211 159.696 74.4124C159.376 74.0927 159.216 73.6848 159.216 73.1886C159.216 72.7917 159.332 72.4444 159.564 72.1467C159.806 71.838 160.137 71.601 160.556 71.4356C160.975 71.2592 161.46 71.171 162.011 71.171C162.32 71.171 162.634 71.1986 162.954 71.2537C163.274 71.3088 163.538 71.3805 163.748 71.4687L163.93 73.1886H163.152L162.756 72.064C162.645 71.9979 162.513 71.9483 162.359 71.9152C162.204 71.8711 162.039 71.8491 161.863 71.8491C161.477 71.8491 161.168 71.9428 160.936 72.1302C160.705 72.3066 160.589 72.5381 160.589 72.8248C160.589 73.1556 160.716 73.4257 160.969 73.6352C161.223 73.8336 161.67 74.0817 162.309 74.3794C163.037 74.7101 163.544 75.0354 163.831 75.3551C164.117 75.6748 164.261 76.0607 164.261 76.5128C164.261 77.1081 164.001 77.5987 163.483 77.9846C162.965 78.3595 162.309 78.5469 161.515 78.5469ZM169.172 78.5469C168.456 78.5469 167.827 78.3926 167.287 78.0839C166.758 77.7751 166.344 77.3452 166.047 76.7939C165.749 76.2316 165.6 75.5921 165.6 74.8755C165.6 74.1258 165.765 73.4753 166.096 72.924C166.427 72.3728 166.868 71.9428 167.419 71.6341C167.971 71.3254 168.577 71.171 169.238 71.171C169.922 71.171 170.517 71.3254 171.025 71.6341C171.543 71.9317 171.94 72.3562 172.215 72.9075C172.502 73.4477 172.645 74.0817 172.645 74.8093C172.645 75.5039 172.491 76.1324 172.182 76.6947C171.873 77.257 171.454 77.709 170.925 78.0508C170.407 78.3815 169.823 78.5469 169.172 78.5469ZM169.338 77.7696C169.713 77.7696 170.038 77.6594 170.313 77.4389C170.589 77.2073 170.804 76.8931 170.958 76.4962C171.113 76.0883 171.19 75.6252 171.19 75.107C171.19 74.1589 170.991 73.3926 170.595 72.8083C170.209 72.2129 169.696 71.9152 169.057 71.9152C168.461 71.9152 167.982 72.1633 167.618 72.6594C167.265 73.1556 167.088 73.8116 167.088 74.6274C167.088 75.2448 167.182 75.7906 167.37 76.2647C167.568 76.7388 167.838 77.1081 168.18 77.3727C168.522 77.6373 168.908 77.7696 169.338 77.7696Z" fill="#232323"/>
<path d="M130.209 95.6747L126.819 100.917L127.232 99.7927V101.364C127.232 101.772 127.232 102.119 127.232 102.406C127.243 102.692 127.249 102.924 127.249 103.1C127.26 103.266 127.271 103.392 127.282 103.481C127.293 103.569 127.298 103.629 127.298 103.663L128.456 103.878L128.423 104.523H124.652L124.603 103.878L125.76 103.663C125.771 103.629 125.777 103.569 125.777 103.481C125.788 103.392 125.799 103.266 125.81 103.1C125.821 102.924 125.826 102.692 125.826 102.406C125.837 102.119 125.843 101.772 125.843 101.364V99.7927L126.174 100.917L122.899 95.6747L122.072 95.4432L122.105 94.8148H125.529L125.578 95.4432L124.569 95.6747L127.001 99.5777H126.769L129.101 95.6747L127.943 95.4432L127.993 94.8148H131.003L131.036 95.4432L130.209 95.6747ZM133.98 104.655C133.34 104.655 132.761 104.511 132.243 104.225C131.736 103.938 131.328 103.53 131.019 103.001C130.722 102.461 130.573 101.827 130.573 101.099C130.573 100.316 130.733 99.6383 131.052 99.065C131.372 98.4917 131.791 98.0507 132.309 97.742C132.827 97.4222 133.384 97.2679 133.98 97.2789C134.84 97.2899 135.512 97.5766 135.997 98.1389C136.482 98.7012 136.725 99.495 136.725 100.52V100.818H131.648V100.09H135.633L135.451 100.305V99.9581C135.451 99.3186 135.308 98.828 135.021 98.4862C134.735 98.1444 134.343 97.9735 133.847 97.9735C133.539 97.9735 133.241 98.0672 132.954 98.2546C132.668 98.4311 132.436 98.7067 132.26 99.0815C132.083 99.4454 131.995 99.9084 131.995 100.471V100.669C131.995 101.573 132.216 102.279 132.657 102.786C133.109 103.293 133.687 103.547 134.393 103.547C134.779 103.547 135.126 103.47 135.435 103.315C135.744 103.161 136.041 102.913 136.328 102.571L136.741 102.951C136.433 103.525 136.041 103.955 135.567 104.241C135.093 104.517 134.564 104.655 133.98 104.655ZM143.026 103.497C142.816 103.861 142.53 104.148 142.166 104.357C141.802 104.556 141.422 104.655 141.025 104.655C140.352 104.655 139.801 104.451 139.371 104.043C138.941 103.635 138.726 103.023 138.726 102.207L138.776 98.2546H137.618V97.9074L139.751 95.9724H140.066L140.032 97.8743L140.016 101.943C140.016 102.516 140.137 102.94 140.38 103.216C140.633 103.492 140.986 103.629 141.438 103.629C141.692 103.629 141.923 103.58 142.133 103.481C142.353 103.381 142.552 103.249 142.728 103.084L143.026 103.497ZM139.437 98.2546V97.4278H142.53V98.2546H139.437Z" fill="#232323"/>
</g>
<mask id="path-10-inside-1_94_20" fill="white">
<path d="M158.764 128.306H182.755V141.007H158.764V128.306Z"/>
</mask>
<path d="M158.764 128.306H182.755V141.007H158.764V128.306Z" fill="#BADEFE"/>
<path d="M182.579 128.306V141.007H182.932V128.306H182.579Z" fill="#BDBDBD" mask="url(#path-10-inside-1_94_20)"/>
<path d="M5.70558 138.752C5.4961 139.116 5.20945 139.403 4.84561 139.612C4.48178 139.811 4.1014 139.91 3.70449 139.91C3.03195 139.91 2.48069 139.706 2.0507 139.298C1.62072 138.89 1.40572 138.278 1.40572 137.462L1.45534 133.51H0.297683V133.162L2.43107 131.227H2.74529L2.71222 133.129L2.69568 137.198C2.69568 137.771 2.81696 138.195 3.05952 138.471C3.3131 138.747 3.66591 138.884 4.11794 138.884C4.37152 138.884 4.60305 138.835 4.81254 138.736C5.03304 138.636 5.2315 138.504 5.4079 138.339L5.70558 138.752ZM2.11685 133.51V132.683H5.20945V133.51H2.11685ZM6.11903 139.778L6.08595 139.182L7.11131 138.934C7.13336 138.813 7.14989 138.631 7.16092 138.388C7.17195 138.135 7.17746 137.798 7.17746 137.38C7.18848 136.961 7.194 136.448 7.194 135.842V133.774C7.194 133.399 7.18848 132.997 7.17746 132.567C7.17746 132.137 7.17195 131.724 7.16092 131.327C7.16092 130.919 7.15541 130.566 7.14438 130.268C7.14438 129.971 7.13887 129.772 7.12784 129.673L5.90404 129.507L5.87096 128.978L8.20281 128.3L8.51703 128.532C8.506 128.874 8.49498 129.215 8.48395 129.557C8.47293 129.899 8.4619 130.268 8.45088 130.665C8.45088 131.051 8.44537 131.492 8.43434 131.988C8.43434 132.484 8.43434 133.058 8.43434 133.708L8.48395 133.725C8.86984 133.306 9.2447 133.002 9.60853 132.815C9.98339 132.628 10.3913 132.534 10.8323 132.534C11.2403 132.534 11.6206 132.639 11.9735 132.848C12.3373 133.058 12.6295 133.377 12.85 133.807C13.0815 134.226 13.1973 134.767 13.1973 135.428V137.214C13.1973 137.611 13.2083 137.969 13.2303 138.289C13.2524 138.598 13.2744 138.813 13.2965 138.934L14.3218 139.182L14.2888 139.778H10.9646L10.915 139.182L11.8742 138.934C11.8853 138.846 11.8963 138.736 11.9073 138.603C11.9183 138.471 11.9238 138.306 11.9238 138.107C11.9349 137.898 11.9404 137.639 11.9404 137.33V135.544C11.9404 135.07 11.8577 134.689 11.6923 134.403C11.538 134.105 11.334 133.89 11.0804 133.758C10.8268 133.614 10.5567 133.543 10.27 133.543C9.91724 133.543 9.58097 133.636 9.26124 133.824C8.9415 134 8.67138 134.248 8.45088 134.568V137.049C8.45088 137.556 8.45639 137.975 8.46742 138.306C8.48947 138.636 8.51152 138.846 8.53357 138.934L9.54238 139.182L9.5093 139.778H6.11903ZM18.8036 139.91C18.1641 139.91 17.5853 139.767 17.0671 139.48C16.56 139.193 16.152 138.785 15.8433 138.256C15.5456 137.716 15.3968 137.082 15.3968 136.354C15.3968 135.571 15.5567 134.893 15.8764 134.32C16.1961 133.747 16.6151 133.306 17.1333 132.997C17.6515 132.677 18.2083 132.523 18.8036 132.534C19.6636 132.545 20.3361 132.832 20.8212 133.394C21.3064 133.956 21.5489 134.75 21.5489 135.775V136.073H16.4718V135.345H20.4574L20.2755 135.56V135.213C20.2755 134.574 20.1322 134.083 19.8455 133.741C19.5588 133.399 19.1675 133.229 18.6713 133.229C18.3626 133.229 18.0649 133.322 17.7783 133.51C17.4916 133.686 17.2601 133.962 17.0837 134.337C16.9073 134.7 16.8191 135.163 16.8191 135.726V135.924C16.8191 136.828 17.0396 137.534 17.4806 138.041C17.9326 138.548 18.5114 138.802 19.2171 138.802C19.6029 138.802 19.9502 138.725 20.259 138.57C20.5677 138.416 20.8653 138.168 21.152 137.826L21.5654 138.206C21.2567 138.78 20.8653 139.21 20.3913 139.496C19.9172 139.772 19.388 139.91 18.8036 139.91ZM25.8488 139.778L25.8157 139.182L26.841 138.934C26.8521 138.857 26.8576 138.758 26.8576 138.636C26.8686 138.515 26.8796 138.339 26.8907 138.107C26.9017 137.876 26.9072 137.561 26.9072 137.165L26.9237 135.875C26.9348 135.643 26.9292 135.406 26.9072 135.163C26.8962 134.921 26.8796 134.695 26.8576 134.485C26.8355 134.265 26.8135 134.088 26.7914 133.956L25.733 133.725V133.179L27.9491 132.567L28.2302 132.832L28.1475 133.725L28.1972 133.741C28.5389 133.311 28.8917 133.002 29.2556 132.815C29.6304 132.628 30.0108 132.534 30.3967 132.534C30.7826 132.534 31.1574 132.639 31.5213 132.848C31.8851 133.058 32.1828 133.377 32.4143 133.807C32.6569 134.237 32.7782 134.789 32.7782 135.461L32.7947 137.214C32.7947 137.611 32.8002 137.969 32.8112 138.289C32.8333 138.598 32.8608 138.813 32.8939 138.934L33.8862 139.182L33.8366 139.778H30.6117L30.5621 139.182L31.4717 138.934C31.4827 138.846 31.4937 138.736 31.5047 138.603C31.5158 138.471 31.5213 138.306 31.5213 138.107C31.5323 137.898 31.5378 137.639 31.5378 137.33L31.5213 135.511C31.5213 135.037 31.4441 134.656 31.2897 134.37C31.1464 134.083 30.9535 133.873 30.7109 133.741C30.4684 133.609 30.2093 133.543 29.9336 133.543C29.5919 133.543 29.2721 133.625 28.9744 133.791C28.6768 133.956 28.4121 134.215 28.1806 134.568V137.049C28.1806 137.556 28.1861 137.969 28.1972 138.289C28.2192 138.598 28.2413 138.813 28.2633 138.934L29.239 139.182L29.1894 139.778H25.8488ZM35.1762 139.778L35.1265 139.182L36.0692 138.934C36.0802 138.846 36.0857 138.736 36.0857 138.603C36.0968 138.471 36.1078 138.306 36.1188 138.107C36.1298 137.898 36.1354 137.639 36.1354 137.33V135.527C36.1354 135.042 36.0527 134.656 35.8873 134.37C35.7219 134.083 35.5124 133.873 35.2588 133.741C35.0163 133.609 34.7682 133.543 34.5146 133.543C34.1398 133.543 33.7925 133.636 33.4728 133.824C33.153 134.011 32.8664 134.298 32.6128 134.684L32.2986 134.072C32.6844 133.543 33.0924 133.157 33.5224 132.914C33.9634 132.661 34.4264 132.534 34.9116 132.534C35.3746 132.534 35.7936 132.644 36.1684 132.865C36.5433 133.085 36.841 133.405 37.0615 133.824C37.282 134.243 37.3922 134.75 37.3922 135.345V137.214C37.3922 137.611 37.3978 137.969 37.4088 138.289C37.4308 138.598 37.4529 138.813 37.4749 138.934L38.5003 139.182L38.4672 139.778H35.1762ZM43.0317 139.91C42.3922 139.91 41.8134 139.767 41.2952 139.48C40.788 139.193 40.3801 138.785 40.0714 138.256C39.7737 137.716 39.6249 137.082 39.6249 136.354C39.6249 135.571 39.7847 134.893 40.1045 134.32C40.4242 133.747 40.8432 133.306 41.3613 132.997C41.8795 132.677 42.4363 132.523 43.0317 132.534C43.8916 132.545 44.5642 132.832 45.0493 133.394C45.5344 133.956 45.777 134.75 45.777 135.775V136.073H40.6998V135.345H44.6855L44.5035 135.56V135.213C44.5035 134.574 44.3602 134.083 44.0736 133.741C43.7869 133.399 43.3955 133.229 42.8994 133.229C42.5907 133.229 42.293 133.322 42.0063 133.51C41.7197 133.686 41.4881 133.962 41.3117 134.337C41.1353 134.7 41.0471 135.163 41.0471 135.726V135.924C41.0471 136.828 41.2676 137.534 41.7086 138.041C42.1607 138.548 42.7395 138.802 43.4451 138.802C43.831 138.802 44.1783 138.725 44.487 138.57C44.7957 138.416 45.0934 138.168 45.3801 137.826L45.7935 138.206C45.4848 138.78 45.0934 139.21 44.6193 139.496C44.1452 139.772 43.616 139.91 43.0317 139.91ZM50.4737 139.91C49.8343 139.91 49.2554 139.767 48.7373 139.48C48.2301 139.193 47.8222 138.785 47.5134 138.256C47.2158 137.716 47.0669 137.082 47.0669 136.354C47.0669 135.571 47.2268 134.893 47.5465 134.32C47.8663 133.747 48.2852 133.306 48.8034 132.997C49.3216 132.677 49.8784 132.523 50.4737 132.534C51.3337 132.545 52.0062 132.832 52.4914 133.394C52.9765 133.956 53.219 134.75 53.219 135.775V136.073H48.1419V135.345H52.1275L51.9456 135.56V135.213C51.9456 134.574 51.8023 134.083 51.5156 133.741C51.229 133.399 50.8376 133.229 50.3414 133.229C50.0327 133.229 49.735 133.322 49.4484 133.51C49.1617 133.686 48.9302 133.962 48.7538 134.337C48.5774 134.7 48.4892 135.163 48.4892 135.726V135.924C48.4892 136.828 48.7097 137.534 49.1507 138.041C49.6027 138.548 50.1816 138.802 50.8872 138.802C51.2731 138.802 51.6204 138.725 51.9291 138.57C52.2378 138.416 52.5355 138.168 52.8221 137.826L53.2356 138.206C52.9269 138.78 52.5355 139.21 52.0614 139.496C51.5873 139.772 51.0581 139.91 50.4737 139.91ZM59.52 138.752C59.3105 139.116 59.0238 139.403 58.66 139.612C58.2962 139.811 57.9158 139.91 57.5189 139.91C56.8463 139.91 56.2951 139.706 55.8651 139.298C55.4351 138.89 55.2201 138.278 55.2201 137.462L55.2697 133.51H54.1121V133.162L56.2455 131.227H56.5597L56.5266 133.129L56.5101 137.198C56.5101 137.771 56.6314 138.195 56.8739 138.471C57.1275 138.747 57.4803 138.884 57.9323 138.884C58.1859 138.884 58.4175 138.835 58.6269 138.736C58.8474 138.636 59.0459 138.504 59.2223 138.339L59.52 138.752ZM55.9312 133.51V132.683H59.0238V133.51H55.9312ZM59.8673 139.778L59.8342 139.166L60.9422 138.934C60.9533 138.89 60.9588 138.813 60.9588 138.703C60.9698 138.592 60.9808 138.416 60.9919 138.173C61.0029 137.931 61.0084 137.595 61.0084 137.165V136.073C61.0084 135.621 60.9974 135.208 60.9753 134.833C60.9533 134.458 60.9257 134.166 60.8926 133.956L59.7846 133.725V133.179L62.133 132.567L62.381 132.799C62.348 133.14 62.3204 133.477 62.2984 133.807C62.2873 134.138 62.2818 134.524 62.2818 134.965V137.049C62.2818 137.556 62.2873 137.975 62.2984 138.306C62.3204 138.636 62.3425 138.846 62.3645 138.934L63.4725 139.166L63.4395 139.778H59.8673ZM61.6534 130.698C61.3777 130.698 61.1352 130.604 60.9257 130.417C60.7272 130.23 60.628 129.998 60.628 129.722C60.628 129.447 60.7272 129.215 60.9257 129.028C61.1352 128.84 61.3777 128.747 61.6534 128.747C61.94 128.747 62.1771 128.84 62.3645 129.028C62.5519 129.215 62.6456 129.447 62.6456 129.722C62.6456 129.998 62.5519 130.23 62.3645 130.417C62.1771 130.604 61.94 130.698 61.6534 130.698ZM64.3656 139.778L64.3325 139.182L65.3579 138.934C65.3689 138.857 65.3744 138.752 65.3744 138.62C65.3854 138.488 65.3965 138.306 65.4075 138.074C65.4185 137.843 65.424 137.539 65.424 137.165L65.4406 135.891C65.4406 135.527 65.424 135.169 65.3909 134.816C65.3689 134.452 65.3413 134.166 65.3082 133.956L64.2498 133.725V133.179L66.4659 132.567L66.747 132.832L66.6644 133.708L66.714 133.725C67.0999 133.306 67.4802 133.002 67.8551 132.815C68.2299 132.628 68.6379 132.534 69.0789 132.534C69.4868 132.534 69.8672 132.639 70.22 132.848C70.5838 133.047 70.876 133.355 71.0965 133.774C71.3281 134.193 71.4438 134.728 71.4438 135.378V137.214C71.4438 137.611 71.4493 137.969 71.4604 138.289C71.4824 138.609 71.51 138.824 71.543 138.934L72.5684 139.182L72.5188 139.778H69.1947L69.1616 139.182L70.1208 138.934C70.1318 138.846 70.1428 138.736 70.1539 138.603C70.1649 138.471 70.1704 138.306 70.1704 138.107C70.1814 137.898 70.1869 137.639 70.1869 137.33V135.544C70.1869 135.048 70.0987 134.656 69.9223 134.37C69.757 134.072 69.5475 133.862 69.2939 133.741C69.0403 133.609 68.7812 133.543 68.5166 133.543C68.1528 133.543 67.811 133.636 67.4913 133.824C67.1825 134 66.9179 134.248 66.6974 134.568V137.049C66.6974 137.556 66.7029 137.969 66.714 138.289C66.736 138.598 66.7581 138.813 66.7801 138.934L67.8055 139.182L67.7559 139.778H64.3656ZM76.8021 143.548C75.7878 143.548 74.9829 143.383 74.3876 143.052C73.7922 142.721 73.4945 142.28 73.4945 141.729C73.4945 141.354 73.6434 141.007 73.941 140.687C74.2387 140.367 74.7183 140.042 75.3798 139.711L76.0083 139.844C75.6444 140.053 75.3633 140.296 75.1649 140.571C74.9664 140.858 74.8672 141.161 74.8672 141.481C74.8672 141.922 75.0436 142.264 75.3964 142.506C75.7602 142.749 76.2508 142.87 76.8683 142.87C77.5849 142.87 78.1637 142.716 78.6047 142.407C79.0457 142.098 79.2663 141.701 79.2663 141.216C79.2663 140.841 79.1284 140.56 78.8528 140.373C78.5882 140.196 78.1472 140.086 77.5298 140.042L75.7602 139.893L75.5121 139.827C75.1042 139.827 74.7569 139.722 74.4703 139.513C74.1946 139.292 74.0568 139.028 74.0568 138.719C74.0568 138.421 74.2001 138.129 74.4868 137.843C74.7735 137.556 75.1704 137.302 75.6775 137.082L75.8925 137.413C75.683 137.556 75.5287 137.688 75.4295 137.81C75.3302 137.92 75.2806 138.03 75.2806 138.14C75.2806 138.295 75.3468 138.427 75.4791 138.537C75.6224 138.647 75.8209 138.714 76.0744 138.736L78.2078 138.951C78.9686 139.028 79.5474 139.221 79.9443 139.529C80.3412 139.838 80.5397 140.279 80.5397 140.852C80.5397 141.36 80.3743 141.817 80.0435 142.225C79.7128 142.633 79.2663 142.953 78.704 143.184C78.1417 143.427 77.5077 143.548 76.8021 143.548ZM76.9344 137.727C76.3501 137.727 75.8264 137.622 75.3633 137.413C74.9113 137.203 74.5585 136.916 74.3049 136.553C74.0513 136.178 73.9245 135.753 73.9245 135.279C73.9245 134.761 74.0568 134.298 74.3214 133.89C74.586 133.471 74.9443 133.146 75.3964 132.914C75.8484 132.672 76.3556 132.55 76.9179 132.55C77.4802 132.55 77.9818 132.661 78.4228 132.881C78.8749 133.102 79.2277 133.41 79.4812 133.807C79.7348 134.193 79.8616 134.634 79.8616 135.13C79.8616 135.615 79.7293 136.056 79.4647 136.453C79.2111 136.85 78.8638 137.165 78.4228 137.396C77.9818 137.617 77.4857 137.727 76.9344 137.727ZM77.0171 137.065C77.4691 137.065 77.8275 136.9 78.0921 136.569C78.3567 136.238 78.489 135.797 78.489 135.246C78.489 134.629 78.3401 134.133 78.0424 133.758C77.7558 133.383 77.3754 133.195 76.9013 133.195C76.4493 133.195 76.0799 133.372 75.7933 133.725C75.5066 134.077 75.3633 134.535 75.3633 135.097C75.3633 135.682 75.5121 136.156 75.8098 136.52C76.1185 136.883 76.521 137.065 77.0171 137.065ZM80.8539 133.741L78.8859 133.609L78.2409 132.947L80.8539 132.683V133.741ZM90.0159 138.752C89.8064 139.116 89.5198 139.403 89.1559 139.612C88.7921 139.811 88.4117 139.91 88.0148 139.91C87.3423 139.91 86.791 139.706 86.361 139.298C85.931 138.89 85.716 138.278 85.716 137.462L85.7657 133.51H84.608V133.162L86.7414 131.227H87.0556L87.0225 133.129L87.006 137.198C87.006 137.771 87.1273 138.195 87.3698 138.471C87.6234 138.747 87.9762 138.884 88.4283 138.884C88.6818 138.884 88.9134 138.835 89.1229 138.736C89.3434 138.636 89.5418 138.504 89.7182 138.339L90.0159 138.752ZM86.4272 133.51V132.683H89.5198V133.51H86.4272ZM94.0512 139.91C93.3345 139.91 92.7061 139.755 92.1658 139.447C91.6366 139.138 91.2232 138.708 90.9255 138.157C90.6278 137.595 90.479 136.955 90.479 136.238C90.479 135.489 90.6443 134.838 90.9751 134.287C91.3059 133.736 91.7469 133.306 92.2981 132.997C92.8494 132.688 93.4558 132.534 94.1173 132.534C94.8009 132.534 95.3962 132.688 95.9034 132.997C96.4216 133.295 96.8185 133.719 97.0941 134.27C97.3808 134.811 97.5241 135.445 97.5241 136.172C97.5241 136.867 97.3698 137.495 97.0611 138.058C96.7524 138.62 96.3334 139.072 95.8042 139.414C95.286 139.744 94.7016 139.91 94.0512 139.91ZM94.2165 139.133C94.5914 139.133 94.9166 139.022 95.1923 138.802C95.4679 138.57 95.6829 138.256 95.8373 137.859C95.9916 137.451 96.0688 136.988 96.0688 136.47C96.0688 135.522 95.8703 134.756 95.4734 134.171C95.0875 133.576 94.5749 133.278 93.9354 133.278C93.34 133.278 92.8604 133.526 92.4966 134.022C92.1438 134.518 91.9674 135.174 91.9674 135.99C91.9674 136.608 92.0611 137.154 92.2485 137.628C92.447 138.102 92.7171 138.471 93.0589 138.736C93.4007 139 93.7866 139.133 94.2165 139.133ZM98.7314 139.778L98.6983 139.182L99.7237 138.934C99.7347 138.857 99.7402 138.758 99.7402 138.636C99.7512 138.515 99.7623 138.339 99.7733 138.107C99.7843 137.876 99.7898 137.561 99.7898 137.165L99.8064 135.875C99.8174 135.643 99.8119 135.406 99.7898 135.163C99.7788 134.921 99.7623 134.695 99.7402 134.485C99.7182 134.265 99.6961 134.088 99.6741 133.956L98.6156 133.725V133.179L100.832 132.567L101.113 132.832L101.03 133.725L101.08 133.741C101.422 133.311 101.774 133.002 102.138 132.815C102.513 132.628 102.893 132.534 103.279 132.534C103.665 132.534 104.04 132.639 104.404 132.848C104.768 133.058 105.065 133.377 105.297 133.807C105.54 134.237 105.661 134.789 105.661 135.461L105.677 137.214C105.677 137.611 105.683 137.969 105.694 138.289C105.716 138.598 105.743 138.813 105.777 138.934L106.769 139.182L106.719 139.778H103.494L103.445 139.182L104.354 138.934C104.365 138.846 104.376 138.736 104.387 138.603C104.398 138.471 104.404 138.306 104.404 138.107C104.415 137.898 104.42 137.639 104.42 137.33L104.404 135.511C104.404 135.037 104.327 134.656 104.172 134.37C104.029 134.083 103.836 133.873 103.594 133.741C103.351 133.609 103.092 133.543 102.816 133.543C102.474 133.543 102.155 133.625 101.857 133.791C101.559 133.956 101.295 134.215 101.063 134.568V137.049C101.063 137.556 101.069 137.969 101.08 138.289C101.102 138.598 101.124 138.813 101.146 138.934L102.122 139.182L102.072 139.778H98.7314ZM108.059 139.778L108.009 139.182L108.952 138.934C108.963 138.846 108.968 138.736 108.968 138.603C108.979 138.471 108.99 138.306 109.001 138.107C109.012 137.898 109.018 137.639 109.018 137.33V135.527C109.018 135.042 108.935 134.656 108.77 134.37C108.605 134.083 108.395 133.873 108.141 133.741C107.899 133.609 107.651 133.543 107.397 133.543C107.022 133.543 106.675 133.636 106.355 133.824C106.036 134.011 105.749 134.298 105.495 134.684L105.181 134.072C105.567 133.543 105.975 133.157 106.405 132.914C106.846 132.661 107.309 132.534 107.794 132.534C108.257 132.534 108.676 132.644 109.051 132.865C109.426 133.085 109.724 133.405 109.944 133.824C110.165 134.243 110.275 134.75 110.275 135.345V137.214C110.275 137.611 110.28 137.969 110.291 138.289C110.313 138.598 110.336 138.813 110.358 138.934L111.383 139.182L111.35 139.778H108.059ZM116.063 139.91C115.346 139.91 114.718 139.755 114.178 139.447C113.649 139.138 113.235 138.708 112.937 138.157C112.64 137.595 112.491 136.955 112.491 136.238C112.491 135.489 112.656 134.838 112.987 134.287C113.318 133.736 113.759 133.306 114.31 132.997C114.861 132.688 115.468 132.534 116.129 132.534C116.813 132.534 117.408 132.688 117.915 132.997C118.434 133.295 118.83 133.719 119.106 134.27C119.393 134.811 119.536 135.445 119.536 136.172C119.536 136.867 119.382 137.495 119.073 138.058C118.764 138.62 118.345 139.072 117.816 139.414C117.298 139.744 116.714 139.91 116.063 139.91ZM116.229 139.133C116.603 139.133 116.929 139.022 117.204 138.802C117.48 138.57 117.695 138.256 117.849 137.859C118.004 137.451 118.081 136.988 118.081 136.47C118.081 135.522 117.882 134.756 117.485 134.171C117.1 133.576 116.587 133.278 115.947 133.278C115.352 133.278 114.872 133.526 114.509 134.022C114.156 134.518 113.979 135.174 113.979 135.99C113.979 136.608 114.073 137.154 114.261 137.628C114.459 138.102 114.729 138.471 115.071 138.736C115.413 139 115.799 139.133 116.229 139.133ZM120.76 139.778L120.71 139.182L121.736 138.934C121.747 138.879 121.758 138.78 121.769 138.636C121.78 138.493 121.785 138.3 121.785 138.058C121.796 137.815 121.802 137.517 121.802 137.165L121.818 135.875C121.818 135.511 121.802 135.152 121.769 134.8C121.747 134.447 121.719 134.166 121.686 133.956L120.628 133.725V133.179L122.844 132.567L123.075 132.799L123.009 134.188L123.059 134.204C123.389 133.565 123.726 133.135 124.067 132.914C124.409 132.683 124.729 132.567 125.027 132.567C125.28 132.567 125.49 132.633 125.655 132.765C125.832 132.887 125.92 133.074 125.92 133.328C125.92 133.592 125.826 133.796 125.639 133.94C125.462 134.072 125.236 134.138 124.961 134.138C124.762 134.138 124.569 134.094 124.382 134.006C124.205 133.918 124.034 133.796 123.869 133.642L124.167 133.741C123.957 133.873 123.759 134.061 123.571 134.303C123.384 134.535 123.213 134.827 123.059 135.18L123.075 136.718C123.086 136.994 123.097 137.28 123.108 137.578C123.119 137.876 123.13 138.146 123.141 138.388C123.152 138.62 123.163 138.802 123.174 138.934L124.613 139.149L124.58 139.778H120.76ZM126.78 139.778L126.73 139.182L127.755 138.934C127.766 138.879 127.777 138.78 127.789 138.636C127.8 138.493 127.805 138.3 127.805 138.058C127.816 137.815 127.822 137.517 127.822 137.165L127.838 135.875C127.838 135.511 127.822 135.152 127.789 134.8C127.766 134.447 127.739 134.166 127.706 133.956L126.647 133.725V133.179L128.863 132.567L129.095 132.799L129.029 134.188L129.078 134.204C129.409 133.565 129.746 133.135 130.087 132.914C130.429 132.683 130.749 132.567 131.046 132.567C131.3 132.567 131.51 132.633 131.675 132.765C131.851 132.887 131.94 133.074 131.94 133.328C131.94 133.592 131.846 133.796 131.658 133.94C131.482 134.072 131.256 134.138 130.98 134.138C130.782 134.138 130.589 134.094 130.402 134.006C130.225 133.918 130.054 133.796 129.889 133.642L130.187 133.741C129.977 133.873 129.779 134.061 129.591 134.303C129.404 134.535 129.233 134.827 129.078 135.18L129.095 136.718C129.106 136.994 129.117 137.28 129.128 137.578C129.139 137.876 129.15 138.146 129.161 138.388C129.172 138.62 129.183 138.802 129.194 138.934L130.633 139.149L130.6 139.778H126.78ZM136.14 139.91C135.424 139.91 134.795 139.755 134.255 139.447C133.726 139.138 133.312 138.708 133.015 138.157C132.717 137.595 132.568 136.955 132.568 136.238C132.568 135.489 132.733 134.838 133.064 134.287C133.395 133.736 133.836 133.306 134.387 132.997C134.938 132.688 135.545 132.534 136.206 132.534C136.89 132.534 137.485 132.688 137.992 132.997C138.511 133.295 138.908 133.719 139.183 134.27C139.47 134.811 139.613 135.445 139.613 136.172C139.613 136.867 139.459 137.495 139.15 138.058C138.841 138.62 138.422 139.072 137.893 139.414C137.375 139.744 136.791 139.91 136.14 139.91ZM136.306 139.133C136.68 139.133 137.006 139.022 137.281 138.802C137.557 138.57 137.772 138.256 137.926 137.859C138.081 137.451 138.158 136.988 138.158 136.47C138.158 135.522 137.959 134.756 137.562 134.171C137.177 133.576 136.664 133.278 136.024 133.278C135.429 133.278 134.949 133.526 134.586 134.022C134.233 134.518 134.056 135.174 134.056 135.99C134.056 136.608 134.15 137.154 134.338 137.628C134.536 138.102 134.806 138.471 135.148 138.736C135.49 139 135.876 139.133 136.306 139.133ZM148.593 139.844L146.063 133.51L145.219 133.262L145.253 132.666H148.296L148.329 133.262L147.469 133.51L149.387 138.537L148.974 138.554L150.942 133.51L150.082 133.262L150.115 132.666H152.678L152.711 133.262L151.934 133.51L149.106 139.844H148.593ZM143.781 139.844L141.102 133.51L140.324 133.262L140.357 132.666H143.417L143.45 133.262L142.607 133.51L144.657 138.537L144.161 138.554L146.344 133.361L146.791 134.386L144.293 139.844H143.781ZM152.843 142.688L152.595 142.209C153.036 142.01 153.373 141.768 153.604 141.481C153.847 141.205 153.968 140.88 153.968 140.505C153.968 140.34 153.935 140.202 153.869 140.092C153.814 139.981 153.742 139.882 153.654 139.794C153.566 139.717 153.477 139.64 153.389 139.563C153.301 139.474 153.224 139.375 153.158 139.265C153.103 139.144 153.075 138.995 153.075 138.818C153.075 138.587 153.163 138.383 153.34 138.206C153.527 138.019 153.764 137.925 154.051 137.925C154.249 137.925 154.431 137.98 154.596 138.091C154.773 138.201 154.911 138.366 155.01 138.587C155.12 138.807 155.175 139.088 155.175 139.43C155.175 139.871 155.076 140.307 154.878 140.737C154.69 141.167 154.42 141.553 154.067 141.894C153.714 142.236 153.307 142.501 152.843 142.688ZM160.484 139.331C160.495 138.945 160.501 138.609 160.501 138.322C160.512 138.036 160.517 137.76 160.517 137.495C160.517 137.22 160.517 136.927 160.517 136.619V133.774C160.517 133.399 160.512 132.997 160.501 132.567C160.501 132.126 160.495 131.707 160.484 131.31C160.484 130.902 160.478 130.549 160.467 130.252C160.467 129.954 160.467 129.756 160.467 129.656L159.244 129.507L159.211 128.978L161.542 128.3L161.857 128.532C161.846 128.995 161.835 129.458 161.824 129.921C161.813 130.384 161.802 130.919 161.79 131.525C161.779 132.131 161.768 132.881 161.757 133.774L161.807 133.791C162.072 133.416 162.408 133.113 162.816 132.881C163.235 132.65 163.681 132.534 164.155 132.534C164.707 132.534 165.214 132.666 165.677 132.931C166.14 133.195 166.509 133.581 166.785 134.088C167.072 134.596 167.215 135.208 167.215 135.924C167.215 136.707 167.027 137.402 166.653 138.008C166.289 138.603 165.798 139.072 165.181 139.414C164.563 139.744 163.88 139.91 163.13 139.91C162.656 139.91 162.187 139.86 161.724 139.761C161.261 139.651 160.848 139.507 160.484 139.331ZM163.494 139.066C164.144 139.066 164.679 138.818 165.098 138.322C165.528 137.826 165.749 137.126 165.76 136.222C165.782 135.34 165.572 134.689 165.131 134.27C164.701 133.84 164.177 133.625 163.56 133.625C163.229 133.625 162.904 133.703 162.584 133.857C162.276 134 162.005 134.226 161.774 134.535V138.554C161.994 138.708 162.243 138.835 162.518 138.934C162.805 139.022 163.13 139.066 163.494 139.066ZM175.401 138.62L176.443 138.884V139.43L174.293 139.959L174.045 139.744L174.062 138.703L174.012 138.686C173.692 139.138 173.362 139.458 173.02 139.645C172.689 139.822 172.331 139.91 171.945 139.91C171.206 139.91 170.589 139.684 170.093 139.232C169.596 138.769 169.348 138.08 169.348 137.165V135.742C169.348 135.434 169.337 135.136 169.315 134.849C169.304 134.552 169.288 134.254 169.266 133.956L168.141 133.725V133.179L170.39 132.567L170.688 132.832C170.666 133.173 170.649 133.537 170.638 133.923C170.627 134.309 170.622 134.711 170.622 135.13L170.605 136.95C170.605 137.633 170.765 138.124 171.085 138.421C171.405 138.708 171.812 138.851 172.309 138.851C172.606 138.851 172.909 138.774 173.218 138.62C173.527 138.466 173.797 138.201 174.029 137.826V135.908C174.029 135.665 174.023 135.428 174.012 135.197C174.012 134.954 174.006 134.728 173.995 134.518C173.984 134.298 173.968 134.111 173.946 133.956L172.739 133.725V133.179L175.07 132.567L175.318 132.799C175.307 133.107 175.296 133.383 175.285 133.625C175.285 133.868 175.285 134.111 175.285 134.353C175.285 134.585 175.285 134.849 175.285 135.147V136.321C175.285 136.927 175.296 137.418 175.318 137.793C175.352 138.157 175.379 138.432 175.401 138.62ZM182.562 138.752C182.353 139.116 182.066 139.403 181.702 139.612C181.338 139.811 180.958 139.91 180.561 139.91C179.888 139.91 179.337 139.706 178.907 139.298C178.477 138.89 178.262 138.278 178.262 137.462L178.312 133.51H177.154V133.162L179.288 131.227H179.602L179.569 133.129L179.552 137.198C179.552 137.771 179.673 138.195 179.916 138.471C180.17 138.747 180.522 138.884 180.974 138.884C181.228 138.884 181.46 138.835 181.669 138.736C181.89 138.636 182.088 138.504 182.264 138.339L182.562 138.752ZM178.973 133.51V132.683H182.066V133.51H178.973ZM193.163 138.62L194.205 138.884V139.43L192.055 139.959L191.807 139.744L191.823 138.703L191.774 138.686C191.454 139.138 191.123 139.458 190.781 139.645C190.451 139.822 190.092 139.91 189.706 139.91C188.968 139.91 188.35 139.684 187.854 139.232C187.358 138.769 187.11 138.08 187.11 137.165V135.742C187.11 135.434 187.099 135.136 187.077 134.849C187.066 134.552 187.049 134.254 187.027 133.956L185.903 133.725V133.179L188.152 132.567L188.45 132.832C188.428 133.173 188.411 133.537 188.4 133.923C188.389 134.309 188.383 134.711 188.383 135.13L188.367 136.95C188.367 137.633 188.527 138.124 188.847 138.421C189.166 138.708 189.574 138.851 190.07 138.851C190.368 138.851 190.671 138.774 190.98 138.62C191.289 138.466 191.559 138.201 191.79 137.826V135.908C191.79 135.665 191.785 135.428 191.774 135.197C191.774 134.954 191.768 134.728 191.757 134.518C191.746 134.298 191.73 134.111 191.708 133.956L190.5 133.725V133.179L192.832 132.567L193.08 132.799C193.069 133.107 193.058 133.383 193.047 133.625C193.047 133.868 193.047 134.111 193.047 134.353C193.047 134.585 193.047 134.849 193.047 135.147V136.321C193.047 136.927 193.058 137.418 193.08 137.793C193.113 138.157 193.141 138.432 193.163 138.62ZM195.131 139.778L195.098 139.182L196.123 138.934C196.134 138.857 196.14 138.752 196.14 138.62C196.151 138.488 196.162 138.306 196.173 138.074C196.184 137.843 196.189 137.539 196.189 137.165L196.206 135.891C196.206 135.527 196.189 135.169 196.156 134.816C196.134 134.452 196.107 134.166 196.074 133.956L195.015 133.725V133.179L197.231 132.567L197.512 132.832L197.43 133.708L197.479 133.725C197.865 133.306 198.246 133.002 198.62 132.815C198.995 132.628 199.403 132.534 199.844 132.534C200.252 132.534 200.633 132.639 200.985 132.848C201.349 133.047 201.641 133.355 201.862 133.774C202.093 134.193 202.209 134.728 202.209 135.378V137.214C202.209 137.611 202.215 137.969 202.226 138.289C202.248 138.609 202.275 138.824 202.308 138.934L203.334 139.182L203.284 139.778H199.96L199.927 139.182L200.886 138.934C200.897 138.846 200.908 138.736 200.919 138.603C200.93 138.471 200.936 138.306 200.936 138.107C200.947 137.898 200.952 137.639 200.952 137.33V135.544C200.952 135.048 200.864 134.656 200.688 134.37C200.522 134.072 200.313 133.862 200.059 133.741C199.806 133.609 199.547 133.543 199.282 133.543C198.918 133.543 198.576 133.636 198.257 133.824C197.948 134 197.683 134.248 197.463 134.568V137.049C197.463 137.556 197.468 137.969 197.479 138.289C197.501 138.598 197.523 138.813 197.545 138.934L198.571 139.182L198.521 139.778H195.131ZM207.948 139.778H204.293L204.243 139.182L205.269 138.934C205.28 138.824 205.285 138.708 205.285 138.587C205.296 138.454 205.302 138.3 205.302 138.124C205.302 137.936 205.302 137.716 205.302 137.462C205.302 137.198 205.302 136.878 205.302 136.503L205.285 133.526V131.641C205.285 130.935 205.395 130.329 205.616 129.822C205.836 129.315 206.145 128.923 206.542 128.648C206.939 128.372 207.402 128.234 207.931 128.234C208.383 128.234 208.758 128.333 209.056 128.532C209.354 128.73 209.502 128.973 209.502 129.259C209.502 129.414 209.447 129.541 209.337 129.64C209.238 129.728 209.111 129.772 208.957 129.772C208.681 129.772 208.422 129.651 208.179 129.408L207.419 128.681L207.816 128.78C207.408 128.78 207.093 128.989 206.873 129.408C206.652 129.827 206.542 130.417 206.542 131.178V132.699L206.559 133.526L206.575 136.371C206.575 136.845 206.581 137.324 206.592 137.81C206.603 138.295 206.614 138.669 206.625 138.934L207.981 139.149L207.948 139.778ZM204.094 133.526V132.98L205.285 132.699H206.509H208.378V133.526H204.094ZM212.893 139.91C212.176 139.91 211.548 139.755 211.007 139.447C210.478 139.138 210.065 138.708 209.767 138.157C209.469 137.595 209.32 136.955 209.32 136.238C209.32 135.489 209.486 134.838 209.817 134.287C210.147 133.736 210.588 133.306 211.14 132.997C211.691 132.688 212.297 132.534 212.959 132.534C213.642 132.534 214.238 132.688 214.745 132.997C215.263 133.295 215.66 133.719 215.936 134.27C216.222 134.811 216.366 135.445 216.366 136.172C216.366 136.867 216.211 137.495 215.903 138.058C215.594 138.62 215.175 139.072 214.646 139.414C214.127 139.744 213.543 139.91 212.893 139.91ZM213.058 139.133C213.433 139.133 213.758 139.022 214.034 138.802C214.309 138.57 214.524 138.256 214.679 137.859C214.833 137.451 214.91 136.988 214.91 136.47C214.91 135.522 214.712 134.756 214.315 134.171C213.929 133.576 213.416 133.278 212.777 133.278C212.182 133.278 211.702 133.526 211.338 134.022C210.985 134.518 210.809 135.174 210.809 135.99C210.809 136.608 210.903 137.154 211.09 137.628C211.288 138.102 211.559 138.471 211.9 138.736C212.242 139 212.628 139.133 213.058 139.133ZM217.589 139.778L217.54 139.182L218.565 138.934C218.576 138.879 218.587 138.78 218.598 138.636C218.609 138.493 218.615 138.3 218.615 138.058C218.626 137.815 218.631 137.517 218.631 137.165L218.648 135.875C218.648 135.511 218.631 135.152 218.598 134.8C218.576 134.447 218.549 134.166 218.516 133.956L217.457 133.725V133.179L219.673 132.567L219.905 132.799L219.839 134.188L219.888 134.204C220.219 133.565 220.555 133.135 220.897 132.914C221.239 132.683 221.559 132.567 221.856 132.567C222.11 132.567 222.319 132.633 222.485 132.765C222.661 132.887 222.749 133.074 222.749 133.328C222.749 133.592 222.656 133.796 222.468 133.94C222.292 134.072 222.066 134.138 221.79 134.138C221.592 134.138 221.399 134.094 221.211 134.006C221.035 133.918 220.864 133.796 220.699 133.642L220.996 133.741C220.787 133.873 220.588 134.061 220.401 134.303C220.213 134.535 220.043 134.827 219.888 135.18L219.905 136.718C219.916 136.994 219.927 137.28 219.938 137.578C219.949 137.876 219.96 138.146 219.971 138.388C219.982 138.62 219.993 138.802 220.004 138.934L221.443 139.149L221.41 139.778H217.589ZM228.769 138.752C228.56 139.116 228.273 139.403 227.909 139.612C227.545 139.811 227.165 139.91 226.768 139.91C226.095 139.91 225.544 139.706 225.114 139.298C224.684 138.89 224.469 138.278 224.469 137.462L224.519 133.51H223.361V133.162L225.495 131.227H225.809L225.776 133.129L225.759 137.198C225.759 137.771 225.88 138.195 226.123 138.471C226.377 138.747 226.729 138.884 227.181 138.884C227.435 138.884 227.667 138.835 227.876 138.736C228.097 138.636 228.295 138.504 228.471 138.339L228.769 138.752ZM225.18 133.51V132.683H228.273V133.51H225.18ZM236.195 138.62L237.236 138.884V139.43L235.087 139.959L234.838 139.744L234.855 138.703L234.805 138.686C234.486 139.138 234.155 139.458 233.813 139.645C233.482 139.822 233.124 139.91 232.738 139.91C231.999 139.91 231.382 139.684 230.886 139.232C230.39 138.769 230.142 138.08 230.142 137.165V135.742C230.142 135.434 230.131 135.136 230.109 134.849C230.098 134.552 230.081 134.254 230.059 133.956L228.934 133.725V133.179L231.184 132.567L231.481 132.832C231.459 133.173 231.443 133.537 231.432 133.923C231.421 134.309 231.415 134.711 231.415 135.13L231.399 136.95C231.399 137.633 231.558 138.124 231.878 138.421C232.198 138.708 232.606 138.851 233.102 138.851C233.4 138.851 233.703 138.774 234.012 138.62C234.32 138.466 234.59 138.201 234.822 137.826V135.908C234.822 135.665 234.816 135.428 234.805 135.197C234.805 134.954 234.8 134.728 234.789 134.518C234.778 134.298 234.761 134.111 234.739 133.956L233.532 133.725V133.179L235.864 132.567L236.112 132.799C236.101 133.107 236.09 133.383 236.079 133.625C236.079 133.868 236.079 134.111 236.079 134.353C236.079 134.585 236.079 134.849 236.079 135.147V136.321C236.079 136.927 236.09 137.418 236.112 137.793C236.145 138.157 236.173 138.432 236.195 138.62ZM238.163 139.778L238.13 139.182L239.155 138.934C239.166 138.857 239.171 138.752 239.171 138.62C239.182 138.488 239.193 138.306 239.204 138.074C239.216 137.843 239.221 137.539 239.221 137.165L239.238 135.891C239.238 135.527 239.221 135.169 239.188 134.816C239.166 134.452 239.138 134.166 239.105 133.956L238.047 133.725V133.179L240.263 132.567L240.544 132.832L240.461 133.708L240.511 133.725C240.897 133.306 241.277 133.002 241.652 132.815C242.027 132.628 242.435 132.534 242.876 132.534C243.284 132.534 243.664 132.639 244.017 132.848C244.381 133.047 244.673 133.355 244.894 133.774C245.125 134.193 245.241 134.728 245.241 135.378V137.214C245.241 137.611 245.246 137.969 245.257 138.289C245.279 138.609 245.307 138.824 245.34 138.934L246.365 139.182L246.316 139.778H242.992L242.959 139.182L243.918 138.934C243.929 138.846 243.94 138.736 243.951 138.603C243.962 138.471 243.967 138.306 243.967 138.107C243.978 137.898 243.984 137.639 243.984 137.33V135.544C243.984 135.048 243.896 134.656 243.719 134.37C243.554 134.072 243.344 133.862 243.091 133.741C242.837 133.609 242.578 133.543 242.314 133.543C241.95 133.543 241.608 133.636 241.288 133.824C240.98 134 240.715 134.248 240.494 134.568V137.049C240.494 137.556 240.5 137.969 240.511 138.289C240.533 138.598 240.555 138.813 240.577 138.934L241.602 139.182L241.553 139.778H238.163ZM249.987 139.91C249.546 139.91 249.155 139.822 248.813 139.645C248.471 139.469 248.201 139.243 248.003 138.967C247.815 138.692 247.722 138.405 247.722 138.107C247.722 137.732 247.843 137.424 248.085 137.181C248.328 136.939 248.725 136.729 249.276 136.553L251.79 135.709V134.866C251.79 134.59 251.707 134.342 251.542 134.122C251.376 133.89 251.156 133.708 250.88 133.576C250.605 133.444 250.296 133.377 249.954 133.377C249.679 133.377 249.491 133.438 249.392 133.559C249.293 133.67 249.232 133.896 249.21 134.237L249.177 134.932C248.78 135.02 248.444 135.009 248.168 134.899C247.892 134.778 247.755 134.585 247.755 134.32C247.755 134.133 247.832 133.945 247.986 133.758C248.152 133.57 248.367 133.394 248.631 133.229C248.896 133.052 249.182 132.903 249.491 132.782C249.8 132.661 250.103 132.578 250.401 132.534C251.217 132.534 251.867 132.749 252.352 133.179C252.848 133.609 253.102 134.171 253.113 134.866L253.08 137.644C253.08 137.854 253.085 138.058 253.096 138.256C253.118 138.454 253.146 138.603 253.179 138.703L254.237 138.901V139.414L253.427 139.711C253.273 139.767 253.129 139.811 252.997 139.844C252.865 139.888 252.755 139.91 252.666 139.91C252.325 139.91 252.104 139.717 252.005 139.331L251.823 138.686H252.071C251.707 139.094 251.354 139.403 251.013 139.612C250.682 139.811 250.34 139.91 249.987 139.91ZM250.434 138.934C250.687 138.934 250.924 138.879 251.145 138.769C251.365 138.647 251.58 138.466 251.79 138.223V136.486L249.938 136.983C249.673 137.049 249.48 137.154 249.359 137.297C249.249 137.44 249.193 137.622 249.193 137.843C249.193 138.118 249.315 138.372 249.557 138.603C249.811 138.824 250.103 138.934 250.434 138.934ZM260.29 138.752C260.081 139.116 259.794 139.403 259.43 139.612C259.067 139.811 258.686 139.91 258.289 139.91C257.617 139.91 257.065 139.706 256.635 139.298C256.205 138.89 255.99 138.278 255.99 137.462L256.04 133.51H254.882V133.162L257.016 131.227H257.33L257.297 133.129L257.28 137.198C257.28 137.771 257.402 138.195 257.644 138.471C257.898 138.747 258.251 138.884 258.703 138.884C258.956 138.884 259.188 138.835 259.397 138.736C259.618 138.636 259.816 138.504 259.993 138.339L260.29 138.752ZM256.702 133.51V132.683H259.794V133.51H256.702ZM264.177 139.91C263.537 139.91 262.958 139.767 262.44 139.48C261.933 139.193 261.525 138.785 261.216 138.256C260.919 137.716 260.77 137.082 260.77 136.354C260.77 135.571 260.93 134.893 261.25 134.32C261.569 133.747 261.988 133.306 262.506 132.997C263.025 132.677 263.581 132.523 264.177 132.534C265.037 132.545 265.709 132.832 266.194 133.394C266.679 133.956 266.922 134.75 266.922 135.775V136.073H261.845V135.345H265.831L265.649 135.56V135.213C265.649 134.574 265.505 134.083 265.219 133.741C264.932 133.399 264.541 133.229 264.044 133.229C263.736 133.229 263.438 133.322 263.151 133.51C262.865 133.686 262.633 133.962 262.457 134.337C262.28 134.7 262.192 135.163 262.192 135.726V135.924C262.192 136.828 262.413 137.534 262.854 138.041C263.306 138.548 263.885 138.802 264.59 138.802C264.976 138.802 265.323 138.725 265.632 138.57C265.941 138.416 266.238 138.168 266.525 137.826L266.939 138.206C266.63 138.78 266.238 139.21 265.764 139.496C265.29 139.772 264.761 139.91 264.177 139.91ZM267.98 139.778L267.947 139.166L269.022 138.934C269.044 138.824 269.061 138.642 269.072 138.388C269.083 138.135 269.089 137.798 269.089 137.38C269.1 136.961 269.105 136.448 269.105 135.842V133.774C269.105 133.355 269.1 132.925 269.089 132.484C269.089 132.043 269.083 131.63 269.072 131.244C269.072 130.847 269.066 130.511 269.055 130.235C269.055 129.948 269.05 129.761 269.039 129.673L267.815 129.507L267.782 128.978L270.147 128.3L270.461 128.532C270.45 128.995 270.439 129.458 270.428 129.921C270.417 130.384 270.406 130.897 270.395 131.459C270.395 132.021 270.395 132.699 270.395 133.493L270.378 136.156C270.378 136.806 270.384 137.396 270.395 137.925C270.417 138.443 270.439 138.78 270.461 138.934L271.536 139.166L271.503 139.778H267.98ZM275.588 139.844L272.677 133.51L271.9 133.262L271.95 132.666H275.158L275.191 133.262L274.166 133.51L276.415 138.537L275.588 139.844ZM279.822 132.666L279.871 133.262L279.094 133.51L276.283 139.414L274.959 142.159C274.717 142.666 274.458 143.024 274.182 143.234C273.918 143.443 273.609 143.548 273.256 143.548C272.98 143.548 272.754 143.482 272.578 143.35C272.413 143.217 272.33 143.047 272.33 142.837C272.33 142.672 272.396 142.512 272.528 142.357C272.661 142.214 272.865 142.104 273.14 142.027L274.678 141.564L273.918 142.391L275.753 138.851L275.935 138.554L278.085 133.51L277.06 133.262L277.093 132.666H279.822ZM283.758 139.778L283.725 139.149L284.733 138.918C284.755 138.862 284.766 138.736 284.766 138.537C284.777 138.339 284.783 138.069 284.783 137.727C284.794 137.385 284.8 136.972 284.8 136.486V133.377C284.8 132.881 284.794 132.462 284.783 132.12C284.783 131.768 284.777 131.492 284.766 131.294C284.766 131.095 284.755 130.974 284.733 130.93L283.725 130.698L283.758 130.07H287.28L287.313 130.698L286.304 130.93C286.282 130.963 286.26 131.073 286.238 131.26C286.227 131.437 286.216 131.702 286.205 132.054C286.205 132.396 286.205 132.837 286.205 133.377V136.486C286.205 137.016 286.205 137.451 286.205 137.793C286.216 138.135 286.227 138.399 286.238 138.587C286.26 138.763 286.282 138.873 286.304 138.918L287.313 139.149L287.28 139.778H283.758ZM295.103 143.548C294.088 143.548 293.283 143.383 292.688 143.052C292.093 142.721 291.795 142.28 291.795 141.729C291.795 141.354 291.944 141.007 292.242 140.687C292.539 140.367 293.019 140.042 293.68 139.711L294.309 139.844C293.945 140.053 293.664 140.296 293.465 140.571C293.267 140.858 293.168 141.161 293.168 141.481C293.168 141.922 293.344 142.264 293.697 142.506C294.061 142.749 294.551 142.87 295.169 142.87C295.885 142.87 296.464 142.716 296.905 142.407C297.346 142.098 297.567 141.701 297.567 141.216C297.567 140.841 297.429 140.56 297.153 140.373C296.889 140.196 296.448 140.086 295.83 140.042L294.061 139.893L293.813 139.827C293.405 139.827 293.057 139.722 292.771 139.513C292.495 139.292 292.357 139.028 292.357 138.719C292.357 138.421 292.501 138.129 292.787 137.843C293.074 137.556 293.471 137.302 293.978 137.082L294.193 137.413C293.984 137.556 293.829 137.688 293.73 137.81C293.631 137.92 293.581 138.03 293.581 138.14C293.581 138.295 293.647 138.427 293.78 138.537C293.923 138.647 294.121 138.714 294.375 138.736L296.508 138.951C297.269 139.028 297.848 139.221 298.245 139.529C298.642 139.838 298.84 140.279 298.84 140.852C298.84 141.36 298.675 141.817 298.344 142.225C298.013 142.633 297.567 142.953 297.005 143.184C296.442 143.427 295.808 143.548 295.103 143.548ZM295.235 137.727C294.651 137.727 294.127 137.622 293.664 137.413C293.212 137.203 292.859 136.916 292.605 136.553C292.352 136.178 292.225 135.753 292.225 135.279C292.225 134.761 292.357 134.298 292.622 133.89C292.887 133.471 293.245 133.146 293.697 132.914C294.149 132.672 294.656 132.55 295.218 132.55C295.781 132.55 296.282 132.661 296.723 132.881C297.175 133.102 297.528 133.41 297.782 133.807C298.035 134.193 298.162 134.634 298.162 135.13C298.162 135.615 298.03 136.056 297.765 136.453C297.512 136.85 297.164 137.165 296.723 137.396C296.282 137.617 295.786 137.727 295.235 137.727ZM295.318 137.065C295.77 137.065 296.128 136.9 296.393 136.569C296.657 136.238 296.79 135.797 296.79 135.246C296.79 134.629 296.641 134.133 296.343 133.758C296.056 133.383 295.676 133.195 295.202 133.195C294.75 133.195 294.381 133.372 294.094 133.725C293.807 134.077 293.664 134.535 293.664 135.097C293.664 135.682 293.813 136.156 294.11 136.52C294.419 136.883 294.822 137.065 295.318 137.065ZM299.154 133.741L297.186 133.609L296.541 132.947L299.154 132.683V133.741ZM303.603 139.91C302.887 139.91 302.258 139.755 301.718 139.447C301.189 139.138 300.775 138.708 300.477 138.157C300.18 137.595 300.031 136.955 300.031 136.238C300.031 135.489 300.196 134.838 300.527 134.287C300.858 133.736 301.299 133.306 301.85 132.997C302.401 132.688 303.008 132.534 303.669 132.534C304.353 132.534 304.948 132.688 305.455 132.997C305.974 133.295 306.37 133.719 306.646 134.27C306.933 134.811 307.076 135.445 307.076 136.172C307.076 136.867 306.922 137.495 306.613 138.058C306.304 138.62 305.885 139.072 305.356 139.414C304.838 139.744 304.254 139.91 303.603 139.91ZM303.769 139.133C304.143 139.133 304.469 139.022 304.744 138.802C305.02 138.57 305.235 138.256 305.389 137.859C305.544 137.451 305.621 136.988 305.621 136.47C305.621 135.522 305.422 134.756 305.025 134.171C304.64 133.576 304.127 133.278 303.487 133.278C302.892 133.278 302.412 133.526 302.049 134.022C301.696 134.518 301.519 135.174 301.519 135.99C301.519 136.608 301.613 137.154 301.801 137.628C301.999 138.102 302.269 138.471 302.611 138.736C302.953 139 303.339 139.133 303.769 139.133ZM313.46 138.752C313.25 139.116 312.964 139.403 312.6 139.612C312.236 139.811 311.856 139.91 311.459 139.91C310.786 139.91 310.235 139.706 309.805 139.298C309.375 138.89 309.16 138.278 309.16 137.462L309.21 133.51H308.052V133.162L310.185 131.227H310.499L310.466 133.129L310.45 137.198C310.45 137.771 310.571 138.195 310.814 138.471C311.067 138.747 311.42 138.884 311.872 138.884C312.126 138.884 312.357 138.835 312.567 138.736C312.787 138.636 312.986 138.504 313.162 138.339L313.46 138.752ZM309.871 133.51V132.683H312.964V133.51H309.871Z" fill="#232323"/>
<rect y="2" width="314" height="141.829" fill="url(#paint0_linear_94_20)"/>
</g>
<defs>
<filter id="filter0_d_94_20" x="102.315" y="0.588764" width="142.535" height="121.366" filterUnits="userSpaceOnUse" color-interpolation-filters="sRGB">
<feFlood flood-opacity="0" result="BackgroundImageFix"/>
<feColorMatrix in="SourceAlpha" type="matrix" values="0 0 0 0 0 0 0 0 0 0 0 0 0 0 0 0 0 0 127 0" result="hardAlpha"/>
<feOffset dy="1.41124"/>
<feGaussianBlur stdDeviation="1.41124"/>
<feComposite in2="hardAlpha" operator="out"/>
<feColorMatrix type="matrix" values="0 0 0 0 0 0 0 0 0 0 0 0 0 0 0 0 0 0 0.15 0"/>
<feBlend mode="normal" in2="BackgroundImageFix" result="effect1_dropShadow_94_20"/>
<feBlend mode="normal" in="SourceGraphic" in2="effect1_dropShadow_94_20" result="shape"/>
</filter>
<linearGradient id="paint0_linear_94_20" x1="-1.39902e-07" y1="73.2674" x2="314" y2="73.2674" gradientUnits="userSpaceOnUse">
<stop offset="0.0265096" stop-color="white"/>
<stop offset="0.279167" stop-color="white" stop-opacity="0"/>
<stop offset="0.846875" stop-color="white" stop-opacity="0"/>
<stop offset="0.97241" stop-color="white"/>
</linearGradient>
</defs>
</svg>
