<svg width="140" height="151" viewBox="0 0 140 151" fill="none" xmlns="http://www.w3.org/2000/svg">
<g clip-path="url(#clip0_97_118)">
<g filter="url(#filter0_d_97_118)">
<path d="M88.8061 85.6724L28.2892 101.294C26.2364 101.821 24.0587 101.511 22.2339 100.431C20.4091 99.3505 19.0862 97.589 18.5554 95.5325L0.253516 24.29C-0.272633 22.2323 0.0369765 20.0494 1.11442 18.2202C2.19187 16.3911 3.94916 15.065 6.00077 14.5329L62.3019 0L76.7123 6.46653L94.5534 75.9153C95.0796 77.973 94.7699 80.1559 93.6925 81.9851C92.615 83.8143 90.8578 85.1403 88.8061 85.6724V85.6724Z" fill="#F2F2F2"/>
</g>
<path d="M6.57442 16.7666C5.11342 17.1455 3.86201 18.0898 3.09474 19.3924C2.32747 20.695 2.10699 22.2495 2.48167 23.7149L20.7836 94.9573C21.1616 96.4218 22.1036 97.6762 23.4031 98.4453C24.7026 99.2144 26.2534 99.4355 27.7152 99.0599L88.2321 83.4387C89.6931 83.0598 90.9445 82.1155 91.7118 80.8129C92.4791 79.5103 92.6996 77.9558 92.3249 76.4905L74.7602 8.11782L62.0961 2.43488L6.57442 16.7666Z" fill="white"/>
<path d="M76.5583 6.83404L67.1925 9.25162C66.5088 9.42811 65.7831 9.32511 65.1751 8.96528C64.5672 8.60545 64.1267 8.01826 63.9506 7.33289L62.1693 0.39886C62.1615 0.368503 62.1624 0.336557 62.1719 0.306686C62.1814 0.276815 62.1991 0.250229 62.2229 0.229976C62.2468 0.209722 62.2759 0.196621 62.3069 0.192176C62.3378 0.187731 62.3694 0.192121 62.398 0.204843L76.5844 6.5201C76.6159 6.53415 76.6424 6.55771 76.66 6.5875C76.6776 6.61729 76.6855 6.65183 76.6826 6.68634C76.6798 6.72085 76.6663 6.75361 76.644 6.78007C76.6217 6.80654 76.5918 6.8254 76.5583 6.83404V6.83404Z" fill="#F2F2F2"/>
<path d="M71.631 67.6736L44.0785 74.7857C43.9092 74.8294 43.733 74.8392 43.56 74.8146C43.3869 74.7901 43.2203 74.7316 43.0698 74.6425C42.9193 74.5534 42.7878 74.4355 42.6827 74.2954C42.5777 74.1554 42.5012 73.996 42.4576 73.8263C42.414 73.6566 42.4042 73.48 42.4287 73.3065C42.4532 73.133 42.5115 72.9661 42.6004 72.8152C42.6893 72.6643 42.8069 72.5325 42.9466 72.4272C43.0863 72.3219 43.2454 72.2452 43.4147 72.2015L70.9672 65.0894C71.1364 65.0457 71.3126 65.0359 71.4857 65.0604C71.6588 65.085 71.8253 65.1435 71.9759 65.2326C72.1264 65.3217 72.2579 65.4396 72.363 65.5796C72.468 65.7197 72.5445 65.8791 72.5881 66.0488C72.6317 66.2184 72.6415 66.3951 72.617 66.5685C72.5925 66.742 72.5341 66.909 72.4453 67.0599C72.3564 67.2107 72.2387 67.3426 72.099 67.4479C71.9593 67.5532 71.8003 67.6299 71.631 67.6736Z" fill="#CCCCCC"/>
<path d="M78.0688 70.6619L45.1991 79.1465C44.8573 79.2348 44.4944 79.1833 44.1904 79.0034C43.8865 78.8234 43.6662 78.5298 43.5782 78.1872C43.4902 77.8445 43.5415 77.4808 43.721 77.1761C43.9005 76.8714 44.1934 76.6506 44.5353 76.5623L77.4049 68.0777C77.7467 67.9899 78.1092 68.0416 78.413 68.2215C78.7167 68.4015 78.9367 68.6949 79.0247 69.0374C79.1127 69.3799 79.0614 69.7434 78.8822 70.048C78.7029 70.3526 78.4104 70.5734 78.0688 70.6619V70.6619Z" fill="#CCCCCC"/>
<path d="M32.8335 83.3515C35.4317 83.3515 37.538 81.2401 37.538 78.6356C37.538 76.0311 35.4317 73.9198 32.8335 73.9198C30.2352 73.9198 28.1289 76.0311 28.1289 78.6356C28.1289 81.2401 30.2352 83.3515 32.8335 83.3515Z" fill="#E6E6E6"/>
<path d="M68.7014 55.332L32.1089 64.774C31.0514 65.0456 29.9296 64.8856 28.9896 64.3292C28.0495 63.7727 27.3681 62.8652 27.0948 61.8058L19.4264 31.9444C19.1554 30.8843 19.315 29.7598 19.8701 28.8175C20.4253 27.8753 21.3306 27.1922 22.3875 26.9182L58.98 17.4762C60.0375 17.2046 61.1594 17.3645 62.0994 17.921C63.0394 18.4775 63.7208 19.385 63.9941 20.4444L71.6625 50.3058C71.9335 51.3659 71.7739 52.4904 71.2188 53.4327C70.6636 54.3749 69.7583 55.058 68.7014 55.332Z" fill="white"/>
<path d="M68.7014 55.332L32.1089 64.774C31.0514 65.0456 29.9296 64.8856 28.9896 64.3292C28.0495 63.7727 27.3681 62.8652 27.0948 61.8058L19.4264 31.9444C19.1554 30.8843 19.315 29.7598 19.8701 28.8175C20.4253 27.8753 21.3306 27.1922 22.3875 26.9182L58.98 17.4762C60.0375 17.2046 61.1594 17.3645 62.0994 17.921C63.0394 18.4775 63.7208 19.385 63.9941 20.4444L71.6625 50.3058C71.9335 51.3659 71.7739 52.4904 71.2188 53.4327C70.6636 54.3749 69.7583 55.058 68.7014 55.332ZM22.5083 27.3885C21.5757 27.6302 20.7769 28.2329 20.2871 29.0643C19.7973 29.8957 19.6564 30.888 19.8955 31.8233L27.5639 61.6847C27.8051 62.6195 28.4064 63.4202 29.2358 63.9112C30.0652 64.4022 31.055 64.5434 31.9882 64.3037L68.5806 54.8617C69.5132 54.6199 70.312 54.0172 70.8019 53.1858C71.2917 52.3544 71.4325 51.3622 71.1934 50.4269L63.525 20.5655C63.2838 19.6307 62.6825 18.8299 61.8531 18.3389C61.0237 17.8479 60.0339 17.7068 59.1008 17.9464L22.5083 27.3885Z" fill="#E6E6E6"/>
<path d="M57.1238 27.5167L38.6561 32.282C38.4946 32.3272 38.3221 32.3092 38.1733 32.2318C38.0246 32.1543 37.9107 32.0231 37.8547 31.8648C37.8287 31.782 37.8197 31.6948 37.8284 31.6085C37.8371 31.5222 37.8632 31.4385 37.9052 31.3627C37.9472 31.2868 38.0042 31.2203 38.0727 31.1672C38.1411 31.1142 38.2197 31.0756 38.3035 31.054L57.1025 26.2032C57.8619 26.5889 57.6621 27.3778 57.1236 27.5168L57.1238 27.5167Z" fill="#F2F2F2"/>
<path d="M57.9578 30.7639L39.4901 35.5291C39.3286 35.5743 39.1561 35.5564 39.0073 35.4789C38.8586 35.4015 38.7447 35.2703 38.6887 35.1119C38.6627 35.0292 38.6537 34.942 38.6624 34.8556C38.6711 34.7693 38.6972 34.6857 38.7392 34.6098C38.7812 34.5339 38.8382 34.4674 38.9066 34.4144C38.9751 34.3613 39.0537 34.3228 39.1375 34.3011L57.9365 29.4504C58.6959 29.8361 58.4961 30.625 57.9576 30.7639L57.9578 30.7639Z" fill="#F2F2F2"/>
<path d="M35.9725 38.4081L30.3363 39.8624C30.1523 39.9097 29.957 39.8819 29.7934 39.785C29.6298 39.6881 29.5111 39.5302 29.4636 39.3457L27.7515 32.6787C27.7043 32.4942 27.7321 32.2984 27.8287 32.1344C27.9253 31.9704 28.0829 31.8515 28.2669 31.8038L33.9031 30.3495C34.0871 30.3023 34.2824 30.3301 34.446 30.427C34.6096 30.5238 34.7282 30.6818 34.7758 30.8662L36.4879 37.5332C36.5351 37.7178 36.5074 37.9135 36.4107 38.0775C36.3141 38.2415 36.1565 38.3604 35.9725 38.4081V38.4081Z" fill="#E6E6E6"/>
<path d="M59.6113 37.4262L31.4261 44.6989C31.2647 44.7441 31.0921 44.7261 30.9433 44.6487C30.7946 44.5712 30.6807 44.4401 30.6248 44.2817C30.5987 44.1989 30.5897 44.1117 30.5984 44.0254C30.6071 43.9391 30.6332 43.8554 30.6752 43.7796C30.7172 43.7037 30.7742 43.6372 30.8427 43.5841C30.9112 43.5311 30.9897 43.4925 31.0735 43.4709L59.5902 36.1127C60.3496 36.4984 60.1498 37.2873 59.6113 37.4262L59.6113 37.4262Z" fill="#F2F2F2"/>
<path d="M60.4453 40.6743L32.2601 47.947C32.0986 47.9922 31.9261 47.9742 31.7773 47.8968C31.6286 47.8193 31.5147 47.6882 31.4587 47.5298C31.4327 47.447 31.4237 47.3598 31.4324 47.2735C31.4411 47.1872 31.4672 47.1035 31.5092 47.0277C31.5512 46.9518 31.6082 46.8853 31.6767 46.8322C31.7452 46.7792 31.8237 46.7406 31.9075 46.719L60.4242 39.3608C61.1836 39.7465 60.9838 40.5354 60.4453 40.6743V40.6743Z" fill="#F2F2F2"/>
<path d="M61.2787 43.9203L33.0936 51.193C32.9321 51.2382 32.7596 51.2202 32.6108 51.1428C32.4621 51.0653 32.3482 50.9341 32.2922 50.7757C32.2662 50.693 32.2572 50.6058 32.2659 50.5195C32.2746 50.4331 32.3007 50.3495 32.3427 50.2736C32.3847 50.1978 32.4417 50.1313 32.5102 50.0782C32.5786 50.0251 32.6572 49.9866 32.741 49.965L61.2577 42.6068C62.0171 42.9924 61.8172 43.7813 61.2787 43.9203V43.9203Z" fill="#F2F2F2"/>
<path d="M62.1127 47.1681L33.9276 54.4408C33.7661 54.486 33.5936 54.468 33.4448 54.3906C33.2961 54.3131 33.1822 54.1819 33.1262 54.0235C33.1002 53.9408 33.0912 53.8536 33.0999 53.7673C33.1086 53.6809 33.1347 53.5973 33.1767 53.5214C33.2187 53.4456 33.2757 53.3791 33.3442 53.326C33.4126 53.2729 33.4912 53.2344 33.575 53.2128L62.0917 45.8546C62.8511 46.2403 62.6512 47.0291 62.1128 47.1681L62.1127 47.1681Z" fill="#F2F2F2"/>
<path d="M62.9467 50.4143L34.7616 57.687C34.6001 57.7322 34.4276 57.7142 34.2788 57.6368C34.13 57.5593 34.0162 57.4281 33.9602 57.2697C33.9341 57.187 33.9252 57.0998 33.9339 57.0135C33.9426 56.9272 33.9687 56.8435 34.0107 56.7676C34.0527 56.6918 34.1097 56.6253 34.1781 56.5722C34.2466 56.5191 34.3252 56.4806 34.409 56.459L62.9257 49.1008C63.685 49.4865 63.4852 50.2754 62.9467 50.4143V50.4143Z" fill="#F2F2F2"/>
<path d="M33.1803 80.2887C33.0778 80.3153 32.9695 80.3079 32.8717 80.2674L32.8656 80.2649L31.584 79.7202C31.5245 79.695 31.4706 79.6583 31.4253 79.6121C31.38 79.566 31.3442 79.5113 31.32 79.4513C31.2958 79.3913 31.2836 79.327 31.2842 79.2623C31.2848 79.1976 31.2981 79.1336 31.3234 79.074C31.3486 79.0144 31.3854 78.9604 31.4315 78.9151C31.4776 78.8697 31.5322 78.834 31.5921 78.8098C31.652 78.7856 31.7161 78.7735 31.7807 78.7742C31.8453 78.7749 31.9091 78.7883 31.9685 78.8138L32.799 79.1678L33.8872 76.6017C33.9124 76.5422 33.9491 76.4882 33.9952 76.443C34.0412 76.3977 34.0957 76.3619 34.1555 76.3377C34.2153 76.3136 34.2793 76.3014 34.3438 76.302C34.4083 76.3026 34.472 76.316 34.5314 76.3413L34.5315 76.3413L34.525 76.3581L34.5318 76.3413C34.6516 76.3925 34.7462 76.4893 34.7949 76.6103C34.8436 76.7314 34.8424 76.8669 34.7915 76.9871L33.5112 80.0044C33.4815 80.0739 33.4363 80.1357 33.3789 80.1849C33.3216 80.2341 33.2537 80.2694 33.1805 80.288L33.1803 80.2887Z" fill="white"/>
<g filter="url(#filter1_d_97_118)">
<path d="M112.018 112.821H49.5267C47.4076 112.819 45.3759 111.974 43.8774 110.472C42.379 108.97 41.5361 106.933 41.5337 104.809V31.2422C41.5361 29.118 42.379 27.0814 43.8774 25.5794C45.3759 24.0773 47.4076 23.2324 49.5267 23.23H107.665L120.011 33.0944V104.809C120.009 106.933 119.166 108.97 117.667 110.472C116.169 111.974 114.137 112.819 112.018 112.821V112.821Z" fill="#E6E6E6"/>
</g>
<path d="M49.5265 25.5365C48.0174 25.5382 46.5706 26.1399 45.5035 27.2095C44.4364 28.2792 43.8362 29.7295 43.8345 31.2422V104.809C43.8362 106.322 44.4364 107.772 45.5035 108.841C46.5706 109.911 48.0174 110.513 49.5265 110.515H112.018C113.527 110.513 114.974 109.911 116.041 108.841C117.108 107.772 117.708 106.322 117.71 104.809V34.2056L106.859 25.5365H49.5265Z" fill="white"/>
<path d="M99.8635 46.9277H71.4121C71.0591 46.9277 70.7205 46.7871 70.4709 46.5369C70.2213 46.2867 70.0811 45.9473 70.0811 45.5935C70.0811 45.2396 70.2213 44.9002 70.4709 44.65C70.7205 44.3998 71.0591 44.2592 71.4121 44.2592H99.8635C100.217 44.2592 100.555 44.3998 100.805 44.65C101.054 44.9002 101.195 45.2396 101.195 45.5935C101.195 45.9473 101.054 46.2867 100.805 46.5369C100.555 46.7871 100.217 46.9277 99.8635 46.9277V46.9277Z" fill="#3B7DFF"/>
<path d="M105.354 51.4308H71.4123C71.0596 51.4303 70.7215 51.2896 70.4722 51.0394C70.223 50.7892 70.083 50.4501 70.083 50.0966C70.083 49.743 70.223 49.4039 70.4722 49.1538C70.7215 48.9036 71.0596 48.7628 71.4123 48.7623H105.354C105.529 48.7621 105.702 48.7964 105.864 48.8634C106.026 48.9303 106.173 49.0286 106.297 49.1525C106.42 49.2764 106.519 49.4236 106.586 49.5856C106.653 49.7476 106.687 49.9212 106.687 50.0966C106.687 50.2719 106.653 50.4456 106.586 50.6076C106.519 50.7696 106.42 50.9167 106.297 51.0407C106.173 51.1646 106.026 51.2628 105.864 51.3298C105.702 51.3967 105.529 51.4311 105.354 51.4308V51.4308Z" fill="#3B7DFF"/>
<path d="M99.8635 64.439H71.413C71.06 64.439 70.7215 64.5795 70.4719 64.8297C70.2223 65.0799 70.082 65.4193 70.082 65.7731C70.082 66.127 70.2223 66.4663 70.4719 66.7165C70.7215 66.9667 71.06 67.1073 71.413 67.1073H99.8635C100.216 67.1073 100.555 66.9667 100.805 66.7165C101.054 66.4663 101.194 66.127 101.194 65.7731C101.194 65.4193 101.054 65.0799 100.805 64.8297C100.555 64.5795 100.216 64.439 99.8635 64.439V64.439Z" fill="#CCCCCC"/>
<path d="M105.354 68.9428H71.413C71.06 68.9428 70.7215 69.0834 70.4719 69.3336C70.2223 69.5838 70.082 69.9231 70.082 70.277C70.082 70.6308 70.2223 70.9702 70.4719 71.2204C70.7215 71.4706 71.06 71.6111 71.413 71.6111H105.354C105.707 71.6111 106.046 71.4706 106.296 71.2204C106.545 70.9702 106.685 70.6308 106.685 70.277C106.685 69.9231 106.545 69.5838 106.296 69.3336C106.046 69.0834 105.707 68.9428 105.354 68.9428Z" fill="#CCCCCC"/>
<path d="M99.8635 87.2887H71.4121C71.0591 87.2887 70.7205 87.1482 70.4709 86.8979C70.2213 86.6477 70.0811 86.3084 70.0811 85.9545C70.0811 85.6006 70.2213 85.2613 70.4709 85.011C70.7205 84.7608 71.0591 84.6202 71.4121 84.6202H99.8635C100.217 84.6202 100.555 84.7608 100.805 85.011C101.054 85.2613 101.195 85.6006 101.195 85.9545C101.195 86.3084 101.054 86.6477 100.805 86.8979C100.555 87.1482 100.217 87.2887 99.8635 87.2887V87.2887Z" fill="#CCCCCC"/>
<path d="M105.354 91.7918H71.4123C71.0596 91.7913 70.7215 91.6505 70.4722 91.4004C70.223 91.1502 70.083 90.8111 70.083 90.4575C70.083 90.104 70.223 89.7649 70.4722 89.5147C70.7215 89.2646 71.0596 89.1238 71.4123 89.1233H105.354C105.529 89.1231 105.702 89.1574 105.864 89.2243C106.026 89.2913 106.173 89.3895 106.297 89.5134C106.42 89.6374 106.519 89.7845 106.586 89.9465C106.653 90.1085 106.687 90.2822 106.687 90.4575C106.687 90.6329 106.653 90.8066 106.586 90.9686C106.519 91.1305 106.42 91.2777 106.297 91.4016C106.173 91.5256 106.026 91.6238 105.864 91.6907C105.702 91.7577 105.529 91.792 105.354 91.7918Z" fill="#CCCCCC"/>
<path d="M59.5644 52.5609C62.1627 52.5609 64.269 50.4495 64.269 47.845C64.269 45.2406 62.1627 43.1292 59.5644 43.1292C56.9662 43.1292 54.8599 45.2406 54.8599 47.845C54.8599 50.4495 56.9662 52.5609 59.5644 52.5609Z" fill="#3B7DFF"/>
<path d="M59.0982 49.644C58.9923 49.6442 58.8893 49.6098 58.8046 49.5462L58.7994 49.5423L57.6937 48.6945C57.6424 48.6552 57.5992 48.6061 57.5668 48.5501C57.5344 48.494 57.5133 48.4322 57.5048 48.368C57.4963 48.3038 57.5004 48.2385 57.5171 48.1759C57.5338 48.1134 57.5626 48.0547 57.6019 48.0033C57.6412 47.9519 57.6902 47.9088 57.7462 47.8764C57.8022 47.844 57.8639 47.823 57.928 47.8146C57.9921 47.8062 58.0572 47.8105 58.1196 47.8274C58.182 47.8442 58.2404 47.8732 58.2916 47.9127L59.0077 48.4632L60.7 46.2501C60.7393 46.1988 60.7882 46.1558 60.844 46.1234C60.8999 46.0911 60.9615 46.0701 61.0255 46.0616C61.0894 46.0531 61.1544 46.0574 61.2167 46.0741C61.279 46.0908 61.3374 46.1196 61.3886 46.159L61.3888 46.1591L61.3782 46.1737L61.389 46.1591C61.4923 46.2386 61.5599 46.356 61.5769 46.4854C61.5939 46.6149 61.559 46.7458 61.4799 46.8495L59.4894 49.4513C59.4433 49.5113 59.3841 49.5598 59.3164 49.5931C59.2486 49.6264 59.1741 49.6436 59.0986 49.6434L59.0982 49.644Z" fill="white"/>
<path d="M64.7523 68.025C64.7526 68.6444 64.6311 69.2577 64.3948 69.83C64.1585 70.4023 63.8121 70.9224 63.3753 71.3605C62.9385 71.7985 62.4199 72.1461 61.8491 72.3832C61.2782 72.6203 60.6664 72.7424 60.0485 72.7425C60.0081 72.7433 59.9677 72.7417 59.9274 72.7377C59.0024 72.7139 58.1049 72.4172 57.3473 71.8846C56.5896 71.3521 56.0055 70.6074 55.6679 69.7438C55.3304 68.8802 55.2544 67.9359 55.4495 67.0292C55.6447 66.1225 56.1023 65.2936 56.765 64.6463C57.4277 63.999 58.2662 63.562 59.1755 63.3899C60.0848 63.2179 61.0245 63.3185 61.877 63.6791C62.7296 64.0397 63.4571 64.6444 63.9685 65.4174C64.4799 66.1904 64.7526 67.0975 64.7523 68.025V68.025Z" fill="#CCCCCC"/>
<path d="M59.5644 92.9218C62.1627 92.9218 64.269 90.8105 64.269 88.206C64.269 85.6015 62.1627 83.4902 59.5644 83.4902C56.9662 83.4902 54.8599 85.6015 54.8599 88.206C54.8599 90.8105 56.9662 92.9218 59.5644 92.9218Z" fill="#CCCCCC"/>
<path d="M119.771 33.4119H110.099C109.393 33.4119 108.716 33.1308 108.217 32.6303C107.717 32.1299 107.437 31.4511 107.437 30.7434V23.5832C107.437 23.5518 107.446 23.5211 107.462 23.4945C107.479 23.468 107.503 23.4467 107.531 23.433C107.559 23.4194 107.591 23.414 107.622 23.4174C107.653 23.4208 107.682 23.433 107.707 23.4524L119.874 33.1144C119.901 33.1359 119.921 33.1653 119.93 33.1986C119.94 33.2318 119.939 33.2672 119.928 33.3C119.916 33.3327 119.895 33.361 119.867 33.3811C119.839 33.4011 119.805 33.4119 119.771 33.4119Z" fill="#CCCCCC"/>
<path d="M64.7522 68.025C64.7524 68.6444 64.6309 69.2577 64.3947 69.83C64.1584 70.4023 63.812 70.9224 63.3752 71.3604C62.9384 71.7985 62.4197 72.146 61.8489 72.3832C61.2781 72.6203 60.6663 72.7424 60.0484 72.7425C60.008 72.7433 59.9675 72.7417 59.9273 72.7376C59.3195 71.2181 59.0852 69.5743 59.2441 67.9449C59.4031 66.3155 59.9506 64.7483 60.8405 63.3755C61.9348 63.5635 62.9276 64.1333 63.6434 64.9841C64.3592 65.8349 64.752 66.912 64.7522 68.025V68.025Z" fill="#3B7DFF"/>
<path d="M70.0811 65.7743C70.0817 65.4204 70.2222 65.0811 70.4719 64.8308C70.7216 64.5805 71.0601 64.4396 71.4132 64.439H78.5028C78.9169 65.2832 79.2112 66.1813 79.3772 67.1073H71.4132C71.0604 67.1072 70.7219 66.9668 70.4722 66.7169C70.2224 66.467 70.0818 66.128 70.0811 65.7743V65.7743Z" fill="#3B7DFF"/>
<path d="M79.5417 68.9428C79.5422 69.844 79.4233 70.7413 79.1881 71.6111H71.413C71.06 71.6111 70.7215 71.4706 70.4719 71.2204C70.2223 70.9702 70.082 70.6308 70.082 70.277C70.082 69.9231 70.2223 69.5838 70.4719 69.3336C70.7215 69.0834 71.06 68.9428 71.413 68.9428H79.5417Z" fill="#3B7DFF"/>
<path d="M97.0832 85.3988C96.8825 85.7286 96.5593 85.965 96.1847 86.056C95.8101 86.147 95.4148 86.085 95.0858 85.8839L78.1296 75.5165C77.9667 75.4169 77.8249 75.286 77.7124 75.1315C77.5999 74.977 77.5189 74.8017 77.474 74.6158C77.429 74.4299 77.4211 74.2369 77.4505 74.0479C77.48 73.8589 77.5463 73.6775 77.6457 73.5142C77.7451 73.3509 77.8756 73.2088 78.0297 73.096C78.1839 72.9833 78.3587 72.902 78.5442 72.857C78.7297 72.812 78.9222 72.804 79.1108 72.8335C79.2993 72.863 79.4802 72.9295 79.6432 73.0291L96.5993 83.3965C96.9284 83.5977 97.1642 83.9217 97.255 84.2972C97.3457 84.6727 97.2839 85.0689 97.0832 85.3988V85.3988Z" fill="#3F3D56"/>
<path d="M80.127 75.0314C78.9296 76.9992 77.177 78.5669 75.0907 79.5362C73.0045 80.5055 70.6783 80.8329 68.4065 80.4771C66.1346 80.1212 64.019 79.098 62.3272 77.5369C60.6354 75.9758 59.4435 73.9468 58.9021 71.7067C58.3606 69.4665 58.4941 67.1157 59.2855 64.9516C60.0769 62.7874 61.4908 60.9071 63.3483 59.5485C65.2058 58.1898 67.4235 57.4137 69.721 57.3185C72.0185 57.2232 74.2926 57.813 76.2557 59.0133C78.8854 60.6253 80.7698 63.217 81.4956 66.2199C82.2214 69.2229 81.7292 72.3917 80.127 75.0314ZM62.7573 64.4111C61.8592 65.887 61.418 67.5966 61.4892 69.3239C61.5605 71.0511 62.1411 72.7184 63.1577 74.1149C64.1743 75.5113 65.5811 76.5743 67.2003 77.1692C68.8196 77.7642 70.5784 77.8646 72.2546 77.4575C73.9307 77.0505 75.4487 76.1544 76.6168 74.8825C77.7848 73.6106 78.5503 72.0201 78.8166 70.3122C79.0829 68.6042 78.8379 66.8554 78.1126 65.2869C77.3874 63.7185 76.2144 62.4009 74.7421 61.5007C72.7671 60.2962 70.3962 59.9261 68.1493 60.4718C65.9025 61.0174 63.9634 62.4341 62.7573 64.4111V64.4111Z" fill="#3F3D56"/>
<g filter="url(#filter2_d_97_118)">
<path d="M117.378 70.8313C120.663 70.8313 123.327 68.1614 123.327 64.868C123.327 61.5746 120.663 58.9047 117.378 58.9047C114.092 58.9047 111.429 61.5746 111.429 64.868C111.429 68.1614 114.092 70.8313 117.378 70.8313Z" fill="#A0616A"/>
</g>
<g filter="url(#filter3_d_97_118)">
<path d="M116.993 98.2986C116.878 97.9403 116.841 97.5617 116.882 97.1877C116.923 96.8136 117.043 96.4526 117.234 96.1282C117.424 95.8038 117.68 95.5234 117.986 95.3053C118.292 95.0872 118.641 94.9364 119.009 94.8628C119.126 94.8399 119.244 94.8254 119.362 94.8191L125.629 84.7375L119.905 79.2827C119.686 79.0743 119.511 78.8245 119.389 78.5478C119.267 78.271 119.201 77.9729 119.195 77.6704C119.189 77.368 119.242 77.0673 119.352 76.7858C119.463 76.5042 119.628 76.2473 119.837 76.03C120.047 75.8127 120.298 75.6392 120.575 75.5196C120.852 75.3999 121.151 75.3365 121.452 75.333C121.754 75.3295 122.053 75.3859 122.333 75.499C122.613 75.6122 122.868 75.7798 123.083 75.9922L130.986 83.8038L131.002 83.8232C131.247 84.1961 131.365 84.6381 131.339 85.0835C131.313 85.5289 131.144 85.9541 130.858 86.296L122.078 96.7053C122.104 96.7887 122.126 96.8735 122.143 96.9592C122.217 97.3283 122.211 97.7088 122.128 98.0757C122.044 98.4426 121.885 98.7878 121.659 99.0884C121.433 99.3891 121.146 99.6385 120.818 99.8204C120.489 100.002 120.125 100.112 119.751 100.144C119.676 100.15 119.6 100.154 119.526 100.154C118.962 100.151 118.414 99.9707 117.959 99.6376C117.505 99.3045 117.167 98.8359 116.993 98.2986V98.2986Z" fill="#A0616A"/>
</g>
<g filter="url(#filter4_d_97_118)">
<path d="M107.579 147.862L104.61 147.862L103.197 136.38L107.58 136.381L107.579 147.862Z" fill="#A0616A"/>
</g>
<g filter="url(#filter5_d_97_118)">
<path d="M108.337 150.747L98.7622 150.747V150.626C98.7622 150.135 98.8586 149.649 99.0459 149.196C99.2332 148.743 99.5077 148.331 99.8538 147.984C100.2 147.637 100.611 147.362 101.063 147.174C101.515 146.987 102 146.89 102.489 146.89H102.489L108.337 146.89L108.337 150.747Z" fill="#2F2E41"/>
</g>
<g filter="url(#filter6_d_97_118)">
<path d="M137.095 143.746L134.543 145.269L127.469 136.129L131.235 133.881L137.095 143.746Z" fill="#A0616A"/>
</g>
<g filter="url(#filter7_d_97_118)">
<path d="M139.218 145.837L130.991 150.747L130.929 150.643C130.679 150.221 130.513 149.755 130.443 149.269C130.373 148.784 130.398 148.289 130.519 147.814C130.639 147.338 130.851 146.891 131.144 146.498C131.437 146.104 131.804 145.773 132.224 145.522L132.225 145.522L137.249 142.523L139.218 145.837Z" fill="#2F2E41"/>
</g>
<g filter="url(#filter8_d_97_118)">
<path d="M102.823 142.806C100.834 119.326 99.6504 97.5136 106.922 88.6156L106.979 88.5466L119.217 93.4537L119.237 93.4975C119.278 93.5876 123.348 102.562 122.399 108.598L125.417 122.517L135.26 139.037C135.339 139.17 135.389 139.318 135.407 139.472C135.425 139.626 135.409 139.782 135.363 139.929C135.316 140.077 135.238 140.213 135.134 140.328C135.031 140.443 134.905 140.535 134.763 140.597L130.486 142.484C130.244 142.589 129.973 142.604 129.722 142.525C129.471 142.446 129.256 142.28 129.118 142.055L118.411 124.555L112.363 111.131C112.33 111.059 112.275 110.999 112.204 110.961C112.134 110.923 112.053 110.909 111.975 110.922C111.896 110.935 111.823 110.973 111.769 111.031C111.714 111.089 111.679 111.163 111.671 111.243L108.319 142.83C108.291 143.098 108.164 143.347 107.964 143.527C107.764 143.707 107.504 143.807 107.235 143.807H103.91C103.637 143.805 103.374 143.702 103.173 143.517C102.973 143.332 102.848 143.078 102.823 142.806V142.806Z" fill="#2F2E41"/>
</g>
<g filter="url(#filter9_d_97_118)">
<path d="M106.963 88.8017L106.905 88.7737L106.896 88.7095C106.439 85.5022 106.98 81.9385 108.504 78.1176C109.256 76.2475 110.652 74.7102 112.439 73.7858C114.227 72.8614 116.286 72.6113 118.242 73.0812V73.0812C119.368 73.3595 120.425 73.8693 121.345 74.5783C122.265 75.2873 123.027 76.18 123.585 77.2C124.136 78.2095 124.471 79.3226 124.57 80.4688C124.669 81.615 124.529 82.7693 124.16 83.8586C122.238 89.4914 119.745 94.7618 119.72 94.8144L119.668 94.9244L106.963 88.8017Z" fill="#3B7DFF"/>
</g>
<g filter="url(#filter10_d_97_118)">
<path d="M93.6112 80.8129C93.9058 80.5797 94.2463 80.4115 94.6103 80.3194C94.9744 80.2273 95.3537 80.2134 95.7235 80.2785C96.0933 80.3436 96.4451 80.4863 96.7561 80.6972C97.067 80.9081 97.33 81.1825 97.5277 81.5024C97.5899 81.6039 97.6449 81.7097 97.6923 81.819L109.307 84.1722L112.4 76.8875C112.518 76.6092 112.69 76.357 112.906 76.1457C113.122 75.9344 113.378 75.768 113.658 75.6562C113.938 75.5444 114.238 75.4894 114.54 75.4944C114.842 75.4994 115.139 75.5642 115.416 75.6852C115.692 75.8061 115.942 75.9808 116.151 76.1992C116.36 76.4175 116.524 76.6752 116.633 76.9573C116.742 77.2394 116.794 77.5403 116.786 77.8427C116.778 78.1451 116.711 78.4429 116.588 78.7191L112.056 88.8752L112.043 88.897C111.781 89.2571 111.409 89.5227 110.984 89.6543C110.558 89.7859 110.102 89.7766 109.682 89.6277L96.8806 85.029C96.8118 85.0828 96.7403 85.133 96.6662 85.1793C96.3471 85.3775 95.9897 85.5059 95.6176 85.556C95.2455 85.6061 94.867 85.5768 94.507 85.4701C94.1469 85.3633 93.8135 85.1815 93.5284 84.9366C93.2434 84.6916 93.0132 84.3891 92.8529 84.0488C92.8202 83.9801 92.7907 83.9106 92.7645 83.8403C92.5695 83.3106 92.5463 82.7327 92.6984 82.189C92.8504 81.6454 93.1699 81.1638 93.6112 80.8129V80.8129Z" fill="#A0616A"/>
</g>
<g filter="url(#filter11_d_97_118)">
<path d="M138.869 71.2541C138.296 70.2364 137.461 69.3042 136.357 68.928C134.932 68.4422 133.388 68.9595 131.923 69.3048C130.794 69.5709 129.614 69.7338 128.476 69.5093C127.338 69.2847 126.24 68.6208 125.723 67.5805C124.961 66.05 125.603 64.2249 125.556 62.5152C125.532 61.5844 125.298 60.6713 124.871 59.8445C124.444 59.0178 123.835 58.299 123.091 57.7423C122.346 57.1857 121.485 56.8057 120.573 56.6311C119.661 56.4564 118.721 56.4916 117.824 56.7341C116.421 56.3282 115.15 56.2906 114.282 57.372C113.19 57.372 112.143 57.8068 111.371 58.5809C110.598 59.3549 110.165 60.4048 110.165 61.4995H114.102C113.915 62.5058 114.128 63.5454 114.696 64.3962C115.391 65.4198 116.6 66.1603 116.833 67.3763C117.058 68.5547 116.259 69.6728 115.421 70.5294C114.582 71.386 113.61 72.2347 113.348 73.4056C113.188 74.2945 113.37 75.2112 113.858 75.9707C114.345 76.7209 114.949 77.3879 115.647 77.946C118.792 80.647 122.53 82.5639 126.556 83.5401C129.391 84.2242 132.491 84.4015 135.123 83.143C136.176 82.6395 137.114 81.9244 137.879 81.0421C138.645 80.1598 139.221 79.1292 139.572 78.0142C139.924 76.8993 140.042 75.7238 139.921 74.5609C139.8 73.398 139.442 72.2724 138.869 71.2541V71.2541Z" fill="#2F2E41"/>
</g>
<path d="M139.758 151H93.7373C93.6731 151 93.6115 150.974 93.566 150.929C93.5206 150.883 93.4951 150.822 93.4951 150.757C93.4951 150.693 93.5206 150.631 93.566 150.586C93.6115 150.54 93.6731 150.514 93.7373 150.514H139.758C139.822 150.514 139.884 150.54 139.929 150.586C139.975 150.631 140 150.693 140 150.757C140 150.822 139.975 150.883 139.929 150.929C139.884 150.974 139.822 151 139.758 151Z" fill="#CCCCCC"/>
</g>
<defs>
<filter id="filter0_d_97_118" x="-3.99707" y="-2" width="102.801" height="109.545" filterUnits="userSpaceOnUse" color-interpolation-filters="sRGB">
<feFlood flood-opacity="0" result="BackgroundImageFix"/>
<feColorMatrix in="SourceAlpha" type="matrix" values="0 0 0 0 0 0 0 0 0 0 0 0 0 0 0 0 0 0 127 0" result="hardAlpha"/>
<feOffset dy="2"/>
<feGaussianBlur stdDeviation="2"/>
<feComposite in2="hardAlpha" operator="out"/>
<feColorMatrix type="matrix" values="0 0 0 0 0 0 0 0 0 0 0 0 0 0 0 0 0 0 0.05 0"/>
<feBlend mode="normal" in2="BackgroundImageFix" result="effect1_dropShadow_97_118"/>
<feBlend mode="normal" in="SourceGraphic" in2="effect1_dropShadow_97_118" result="shape"/>
</filter>
<filter id="filter1_d_97_118" x="37.5337" y="21.23" width="86.4775" height="97.5911" filterUnits="userSpaceOnUse" color-interpolation-filters="sRGB">
<feFlood flood-opacity="0" result="BackgroundImageFix"/>
<feColorMatrix in="SourceAlpha" type="matrix" values="0 0 0 0 0 0 0 0 0 0 0 0 0 0 0 0 0 0 127 0" result="hardAlpha"/>
<feOffset dy="2"/>
<feGaussianBlur stdDeviation="2"/>
<feComposite in2="hardAlpha" operator="out"/>
<feColorMatrix type="matrix" values="0 0 0 0 0 0 0 0 0 0 0 0 0 0 0 0 0 0 0.05 0"/>
<feBlend mode="normal" in2="BackgroundImageFix" result="effect1_dropShadow_97_118"/>
<feBlend mode="normal" in="SourceGraphic" in2="effect1_dropShadow_97_118" result="shape"/>
</filter>
<filter id="filter2_d_97_118" x="107.429" y="56.9047" width="19.8979" height="19.9266" filterUnits="userSpaceOnUse" color-interpolation-filters="sRGB">
<feFlood flood-opacity="0" result="BackgroundImageFix"/>
<feColorMatrix in="SourceAlpha" type="matrix" values="0 0 0 0 0 0 0 0 0 0 0 0 0 0 0 0 0 0 127 0" result="hardAlpha"/>
<feOffset dy="2"/>
<feGaussianBlur stdDeviation="2"/>
<feComposite in2="hardAlpha" operator="out"/>
<feColorMatrix type="matrix" values="0 0 0 0 0 0 0 0 0 0 0 0 0 0 0 0 0 0 0.05 0"/>
<feBlend mode="normal" in2="BackgroundImageFix" result="effect1_dropShadow_97_118"/>
<feBlend mode="normal" in="SourceGraphic" in2="effect1_dropShadow_97_118" result="shape"/>
</filter>
<filter id="filter3_d_97_118" x="112.866" y="73.3328" width="22.4766" height="32.8209" filterUnits="userSpaceOnUse" color-interpolation-filters="sRGB">
<feFlood flood-opacity="0" result="BackgroundImageFix"/>
<feColorMatrix in="SourceAlpha" type="matrix" values="0 0 0 0 0 0 0 0 0 0 0 0 0 0 0 0 0 0 127 0" result="hardAlpha"/>
<feOffset dy="2"/>
<feGaussianBlur stdDeviation="2"/>
<feComposite in2="hardAlpha" operator="out"/>
<feColorMatrix type="matrix" values="0 0 0 0 0 0 0 0 0 0 0 0 0 0 0 0 0 0 0.05 0"/>
<feBlend mode="normal" in2="BackgroundImageFix" result="effect1_dropShadow_97_118"/>
<feBlend mode="normal" in="SourceGraphic" in2="effect1_dropShadow_97_118" result="shape"/>
</filter>
<filter id="filter4_d_97_118" x="99.1973" y="134.38" width="12.3828" height="19.4815" filterUnits="userSpaceOnUse" color-interpolation-filters="sRGB">
<feFlood flood-opacity="0" result="BackgroundImageFix"/>
<feColorMatrix in="SourceAlpha" type="matrix" values="0 0 0 0 0 0 0 0 0 0 0 0 0 0 0 0 0 0 127 0" result="hardAlpha"/>
<feOffset dy="2"/>
<feGaussianBlur stdDeviation="2"/>
<feComposite in2="hardAlpha" operator="out"/>
<feColorMatrix type="matrix" values="0 0 0 0 0 0 0 0 0 0 0 0 0 0 0 0 0 0 0.05 0"/>
<feBlend mode="normal" in2="BackgroundImageFix" result="effect1_dropShadow_97_118"/>
<feBlend mode="normal" in="SourceGraphic" in2="effect1_dropShadow_97_118" result="shape"/>
</filter>
<filter id="filter5_d_97_118" x="94.7622" y="144.89" width="17.5752" height="11.8574" filterUnits="userSpaceOnUse" color-interpolation-filters="sRGB">
<feFlood flood-opacity="0" result="BackgroundImageFix"/>
<feColorMatrix in="SourceAlpha" type="matrix" values="0 0 0 0 0 0 0 0 0 0 0 0 0 0 0 0 0 0 127 0" result="hardAlpha"/>
<feOffset dy="2"/>
<feGaussianBlur stdDeviation="2"/>
<feComposite in2="hardAlpha" operator="out"/>
<feColorMatrix type="matrix" values="0 0 0 0 0 0 0 0 0 0 0 0 0 0 0 0 0 0 0.05 0"/>
<feBlend mode="normal" in2="BackgroundImageFix" result="effect1_dropShadow_97_118"/>
<feBlend mode="normal" in="SourceGraphic" in2="effect1_dropShadow_97_118" result="shape"/>
</filter>
<filter id="filter6_d_97_118" x="123.469" y="131.881" width="17.6255" height="19.3878" filterUnits="userSpaceOnUse" color-interpolation-filters="sRGB">
<feFlood flood-opacity="0" result="BackgroundImageFix"/>
<feColorMatrix in="SourceAlpha" type="matrix" values="0 0 0 0 0 0 0 0 0 0 0 0 0 0 0 0 0 0 127 0" result="hardAlpha"/>
<feOffset dy="2"/>
<feGaussianBlur stdDeviation="2"/>
<feComposite in2="hardAlpha" operator="out"/>
<feColorMatrix type="matrix" values="0 0 0 0 0 0 0 0 0 0 0 0 0 0 0 0 0 0 0.05 0"/>
<feBlend mode="normal" in2="BackgroundImageFix" result="effect1_dropShadow_97_118"/>
<feBlend mode="normal" in="SourceGraphic" in2="effect1_dropShadow_97_118" result="shape"/>
</filter>
<filter id="filter7_d_97_118" x="126.404" y="140.523" width="16.8135" height="16.2244" filterUnits="userSpaceOnUse" color-interpolation-filters="sRGB">
<feFlood flood-opacity="0" result="BackgroundImageFix"/>
<feColorMatrix in="SourceAlpha" type="matrix" values="0 0 0 0 0 0 0 0 0 0 0 0 0 0 0 0 0 0 127 0" result="hardAlpha"/>
<feOffset dy="2"/>
<feGaussianBlur stdDeviation="2"/>
<feComposite in2="hardAlpha" operator="out"/>
<feColorMatrix type="matrix" values="0 0 0 0 0 0 0 0 0 0 0 0 0 0 0 0 0 0 0.05 0"/>
<feBlend mode="normal" in2="BackgroundImageFix" result="effect1_dropShadow_97_118"/>
<feBlend mode="normal" in="SourceGraphic" in2="effect1_dropShadow_97_118" result="shape"/>
</filter>
<filter id="filter8_d_97_118" x="97.3096" y="86.5466" width="42.1045" height="63.2601" filterUnits="userSpaceOnUse" color-interpolation-filters="sRGB">
<feFlood flood-opacity="0" result="BackgroundImageFix"/>
<feColorMatrix in="SourceAlpha" type="matrix" values="0 0 0 0 0 0 0 0 0 0 0 0 0 0 0 0 0 0 127 0" result="hardAlpha"/>
<feOffset dy="2"/>
<feGaussianBlur stdDeviation="2"/>
<feComposite in2="hardAlpha" operator="out"/>
<feColorMatrix type="matrix" values="0 0 0 0 0 0 0 0 0 0 0 0 0 0 0 0 0 0 0.05 0"/>
<feBlend mode="normal" in2="BackgroundImageFix" result="effect1_dropShadow_97_118"/>
<feBlend mode="normal" in="SourceGraphic" in2="effect1_dropShadow_97_118" result="shape"/>
</filter>
<filter id="filter9_d_97_118" x="102.739" y="70.8496" width="25.8618" height="30.0748" filterUnits="userSpaceOnUse" color-interpolation-filters="sRGB">
<feFlood flood-opacity="0" result="BackgroundImageFix"/>
<feColorMatrix in="SourceAlpha" type="matrix" values="0 0 0 0 0 0 0 0 0 0 0 0 0 0 0 0 0 0 127 0" result="hardAlpha"/>
<feOffset dy="2"/>
<feGaussianBlur stdDeviation="2"/>
<feComposite in2="hardAlpha" operator="out"/>
<feColorMatrix type="matrix" values="0 0 0 0 0 0 0 0 0 0 0 0 0 0 0 0 0 0 0.05 0"/>
<feBlend mode="normal" in2="BackgroundImageFix" result="effect1_dropShadow_97_118"/>
<feBlend mode="normal" in="SourceGraphic" in2="effect1_dropShadow_97_118" result="shape"/>
</filter>
<filter id="filter10_d_97_118" x="88.5991" y="73.4941" width="32.1875" height="22.2526" filterUnits="userSpaceOnUse" color-interpolation-filters="sRGB">
<feFlood flood-opacity="0" result="BackgroundImageFix"/>
<feColorMatrix in="SourceAlpha" type="matrix" values="0 0 0 0 0 0 0 0 0 0 0 0 0 0 0 0 0 0 127 0" result="hardAlpha"/>
<feOffset dy="2"/>
<feGaussianBlur stdDeviation="2"/>
<feComposite in2="hardAlpha" operator="out"/>
<feColorMatrix type="matrix" values="0 0 0 0 0 0 0 0 0 0 0 0 0 0 0 0 0 0 0.05 0"/>
<feBlend mode="normal" in2="BackgroundImageFix" result="effect1_dropShadow_97_118"/>
<feBlend mode="normal" in="SourceGraphic" in2="effect1_dropShadow_97_118" result="shape"/>
</filter>
<filter id="filter11_d_97_118" x="106.165" y="54.4717" width="37.8027" height="35.6006" filterUnits="userSpaceOnUse" color-interpolation-filters="sRGB">
<feFlood flood-opacity="0" result="BackgroundImageFix"/>
<feColorMatrix in="SourceAlpha" type="matrix" values="0 0 0 0 0 0 0 0 0 0 0 0 0 0 0 0 0 0 127 0" result="hardAlpha"/>
<feOffset dy="2"/>
<feGaussianBlur stdDeviation="2"/>
<feComposite in2="hardAlpha" operator="out"/>
<feColorMatrix type="matrix" values="0 0 0 0 0 0 0 0 0 0 0 0 0 0 0 0 0 0 0.05 0"/>
<feBlend mode="normal" in2="BackgroundImageFix" result="effect1_dropShadow_97_118"/>
<feBlend mode="normal" in="SourceGraphic" in2="effect1_dropShadow_97_118" result="shape"/>
</filter>
<clipPath id="clip0_97_118">
<rect width="140" height="151" fill="white"/>
</clipPath>
</defs>
</svg>
