<svg width="217" height="29" viewBox="0 0 217 29" fill="none" xmlns="http://www.w3.org/2000/svg">
<path d="M20.8594 4.91406L21.7578 11.3984L19.8047 11.5938L18.2031 7.17969C17.9688 7.1276 17.7083 7.10156 17.4219 7.10156C17.1615 7.07552 16.901 7.0625 16.6406 7.0625H15.2734C15.013 7.0625 14.6875 7.0625 14.2969 7.0625C13.9062 7.0625 13.5547 7.07552 13.2422 7.10156C13.2422 7.3099 13.2292 7.80469 13.2031 8.58594C13.2031 9.34115 13.2031 10.2526 13.2031 11.3203C13.2031 12.362 13.2031 13.3776 13.2031 14.3672V19.1328C13.2031 20.7214 13.2161 22.1276 13.2422 23.3516C13.2682 24.5495 13.2812 25.3698 13.2812 25.8125L16.6406 26.2812L16.5234 28H5.89844L5.78125 26.2812L9.10156 25.8125C9.10156 25.3698 9.11458 24.5495 9.14062 23.3516C9.16667 22.1276 9.17969 20.7214 9.17969 19.1328V14.3672C9.17969 13.3776 9.17969 12.362 9.17969 11.3203C9.17969 10.2526 9.17969 9.34115 9.17969 8.58594C9.17969 7.80469 9.16667 7.3099 9.14062 7.10156C8.85417 7.07552 8.51562 7.0625 8.125 7.0625C7.76042 7.0625 7.4349 7.0625 7.14844 7.0625H5.70312C5.44271 7.0625 5.16927 7.07552 4.88281 7.10156C4.6224 7.10156 4.375 7.1276 4.14062 7.17969L2.57812 11.6719L0.625 11.4375L1.44531 4.91406C1.75781 4.9401 2.08333 4.96615 2.42188 4.99219C2.78646 4.99219 3.16406 5.00521 3.55469 5.03125C3.94531 5.03125 4.32292 5.04427 4.6875 5.07031C5.07812 5.07031 5.44271 5.07031 5.78125 5.07031H16.5625C16.875 5.07031 17.2135 5.07031 17.5781 5.07031C17.9688 5.04427 18.3594 5.03125 18.75 5.03125C19.1406 5.00521 19.5182 4.99219 19.8828 4.99219C20.2474 4.96615 20.5729 4.9401 20.8594 4.91406ZM23.4375 28L23.3203 26.4766L25.7422 25.8516C25.7943 25.5911 25.8333 25.1484 25.8594 24.5234C25.8854 23.8984 25.9115 23.0911 25.9375 22.1016C25.9635 21.112 25.9766 19.9922 25.9766 18.7422V13.8594C25.9766 12.974 25.9635 12.0495 25.9375 11.0859C25.9375 10.0964 25.9245 9.14583 25.8984 8.23438C25.8984 7.32292 25.8854 6.51562 25.8594 5.8125C25.8333 5.10938 25.8073 4.61458 25.7812 4.32812L22.8906 3.9375L22.8125 2.53125L28.9062 0.851562L29.7656 1.4375C29.7396 2.24479 29.7135 3.05208 29.6875 3.85938C29.6615 4.64062 29.6354 5.48698 29.6094 6.39844C29.6094 7.3099 29.5964 8.35156 29.5703 9.52344C29.5443 10.6953 29.5312 12.0625 29.5312 13.625L29.6484 13.6641C30.5078 12.6745 31.3932 11.9453 32.3047 11.4766C33.2161 11.0078 34.1927 10.7734 35.2344 10.7734C36.25 10.7734 37.1875 11.0339 38.0469 11.5547C38.9062 12.0755 39.5964 12.8438 40.1172 13.8594C40.6641 14.875 40.9375 16.151 40.9375 17.6875V21.8281C40.9375 22.7396 40.9505 23.5729 40.9766 24.3281C41.0286 25.0833 41.0807 25.5911 41.1328 25.8516L43.5547 26.4766L43.4766 28H35L34.8828 26.4766L37.1484 25.8516C37.1745 25.6432 37.2005 25.3698 37.2266 25.0312C37.2526 24.6667 37.2656 24.237 37.2656 23.7422C37.2917 23.2474 37.3047 22.6745 37.3047 22.0234V18.1172C37.3047 17.0495 37.1224 16.1901 36.7578 15.5391C36.4193 14.862 35.9635 14.3672 35.3906 14.0547C34.8438 13.7422 34.2448 13.5859 33.5938 13.5859C32.8125 13.5859 32.0703 13.7812 31.3672 14.1719C30.6641 14.5365 30.0651 15.0573 29.5703 15.7344V21.5547C29.5703 22.7005 29.5833 23.651 29.6094 24.4062C29.6615 25.1615 29.7266 25.6432 29.8047 25.8516L32.1875 26.4766L32.0703 28H23.4375ZM51.7969 28.3125C50.7031 28.3125 49.7396 28.0911 48.9062 27.6484C48.0729 27.1797 47.4349 26.6068 46.9922 25.9297C46.5495 25.2526 46.3281 24.5755 46.3281 23.8984C46.3281 23.013 46.6146 22.2708 47.1875 21.6719C47.7604 21.0729 48.6849 20.5781 49.9609 20.1875L55.9766 18.2344V16.4375C55.9766 15.8125 55.7812 15.2526 55.3906 14.7578C55.026 14.237 54.5312 13.8203 53.9062 13.5078C53.2812 13.1953 52.5911 13.0391 51.8359 13.0391C51.237 13.0391 50.8333 13.1693 50.625 13.4297C50.4167 13.6641 50.2865 14.1458 50.2344 14.875L50.1172 16.75C49.0755 16.9844 48.1901 16.9583 47.4609 16.6719C46.7578 16.3594 46.4062 15.8516 46.4062 15.1484C46.4062 14.7057 46.6146 14.25 47.0312 13.7812C47.474 13.3125 48.0208 12.8698 48.6719 12.4531C49.349 12.0365 50.0651 11.6849 50.8203 11.3984C51.5755 11.0859 52.2917 10.8776 52.9688 10.7734C55.026 10.7734 56.6536 11.2943 57.8516 12.3359C59.0755 13.3516 59.7005 14.7057 59.7266 16.3984L59.6484 22.6094C59.6484 23.1562 59.6615 23.6641 59.6875 24.1328C59.7396 24.5755 59.8047 24.9141 59.8828 25.1484L62.4219 25.6172V26.9844L60.3125 27.8047C59.9219 27.9609 59.5573 28.0781 59.2188 28.1562C58.8802 28.2604 58.5807 28.3125 58.3203 28.3125C57.4609 28.3125 56.875 27.8438 56.5625 26.9062L56.0547 25.2656L56.7188 25.3438C55.8854 26.3073 55.0651 27.0495 54.2578 27.5703C53.4505 28.0651 52.6302 28.3125 51.7969 28.3125ZM53.1641 25.6172C53.6849 25.6172 54.1797 25.5 54.6484 25.2656C55.1172 25.0312 55.5599 24.6797 55.9766 24.2109V20.1875L52.1484 21.125C51.5234 21.2812 51.0677 21.5286 50.7812 21.8672C50.5208 22.1797 50.3906 22.5964 50.3906 23.1172C50.3906 23.7682 50.6641 24.3542 51.2109 24.875C51.7578 25.3698 52.4089 25.6172 53.1641 25.6172ZM76.875 25.3047C76.4062 26.2422 75.7161 26.9844 74.8047 27.5312C73.8932 28.0521 72.9167 28.3125 71.875 28.3125C70.2344 28.3125 68.8802 27.8307 67.8125 26.8672C66.7448 25.8776 66.2109 24.3802 66.2109 22.375L66.3281 13.2344H63.5938V12.2969L69.1016 7.49219H70.0391L69.9609 12.2969L69.9219 21.8281C69.9219 23.0781 70.1953 24.0026 70.7422 24.6016C71.3151 25.2005 72.1224 25.5 73.1641 25.5C73.7109 25.5 74.2318 25.3958 74.7266 25.1875C75.2474 24.9531 75.7031 24.6536 76.0938 24.2891L76.875 25.3047ZM68.2812 13.2344V11.125H75.7422V13.2344H68.2812ZM96.4453 12.7266L89.8047 28.1172H87.5781L78.5938 7.84375L76.5234 7.17969L76.6406 5.07031H87.2266L87.3438 7.17969L85.4297 7.84375L91.5234 22.375H89.2969L94.5703 9.17188L96.4453 12.7266ZM102.227 28.1172L93.0469 7.84375L91.0938 7.17969L91.2109 5.07031H102.07L102.188 7.17969L99.6875 7.84375L105.938 22.375H104.062L109.609 7.84375L106.953 7.17969L107.07 5.07031H115.352L115.469 7.17969L113.438 7.84375L104.414 28.1172H102.227ZM123.945 28.3125C122.096 28.3125 120.456 27.9479 119.023 27.2188C117.617 26.4635 116.51 25.4219 115.703 24.0938C114.896 22.7656 114.492 21.2552 114.492 19.5625C114.492 17.5833 114.948 15.9167 115.859 14.5625C116.771 13.1823 117.956 12.1406 119.414 11.4375C120.898 10.7344 122.461 10.3828 124.102 10.3828C125.872 10.3828 127.435 10.7604 128.789 11.5156C130.143 12.2448 131.198 13.2734 131.953 14.6016C132.734 15.9036 133.125 17.4141 133.125 19.1328C133.125 20.8516 132.708 22.4141 131.875 23.8203C131.068 25.2005 129.961 26.2943 128.555 27.1016C127.174 27.9089 125.638 28.3125 123.945 28.3125ZM124.336 25.5781C124.935 25.5781 125.417 25.3958 125.781 25.0312C126.172 24.6406 126.471 24.0677 126.68 23.3125C126.888 22.5312 126.992 21.6068 126.992 20.5391C126.992 18.2734 126.667 16.4375 126.016 15.0312C125.365 13.625 124.505 12.9219 123.438 12.9219C122.578 12.9219 121.901 13.4036 121.406 14.3672C120.938 15.3047 120.703 16.6068 120.703 18.2734C120.703 19.6276 120.859 20.8646 121.172 21.9844C121.484 23.1042 121.914 23.9896 122.461 24.6406C123.034 25.2656 123.659 25.5781 124.336 25.5781ZM135.039 28L134.922 26.0859L137.344 25.3828C137.37 25.2786 137.396 25.0182 137.422 24.6016C137.448 24.1589 137.474 23.6641 137.5 23.1172C137.526 22.5703 137.539 22.0495 137.539 21.5547L137.578 18.625C137.578 17.8958 137.552 17.2708 137.5 16.75C137.474 16.2031 137.396 15.5521 137.266 14.7969L134.766 14.25V12.375L142.031 10.4609L143.203 11.1641L143.047 14.25L143.164 14.2891C143.893 12.8307 144.635 11.8411 145.391 11.3203C146.146 10.7995 146.953 10.5391 147.812 10.5391C148.542 10.5391 149.193 10.7604 149.766 11.2031C150.339 11.6198 150.625 12.2839 150.625 13.1953C150.625 14.0807 150.312 14.7969 149.688 15.3438C149.089 15.8646 148.385 16.125 147.578 16.125C146.901 16.125 146.302 16.0078 145.781 15.7734C145.26 15.5391 144.674 15.0964 144.023 14.4453L145.273 14.5234C144.883 14.7839 144.518 15.1224 144.18 15.5391C143.867 15.9557 143.594 16.3984 143.359 16.8672L143.398 19.7969C143.424 20.8385 143.438 21.763 143.438 22.5703C143.464 23.3516 143.49 23.9896 143.516 24.4844C143.542 24.9531 143.555 25.2526 143.555 25.3828L146.953 26.0078L146.836 28H135.039ZM164.883 28.5078L163.633 27.9219L163.672 25.3438L163.555 25.2656C162.956 26.4375 162.253 27.2578 161.445 27.7266C160.638 28.1693 159.818 28.3906 158.984 28.3906C157.656 28.3906 156.406 28.0391 155.234 27.3359C154.062 26.6328 153.112 25.6562 152.383 24.4062C151.68 23.1302 151.328 21.6458 151.328 19.9531C151.328 18.4688 151.602 17.1406 152.148 15.9688C152.695 14.7969 153.438 13.8073 154.375 13C155.312 12.1667 156.354 11.5417 157.5 11.125C158.672 10.6823 159.857 10.4609 161.055 10.4609C161.497 10.4609 161.927 10.5 162.344 10.5781C162.786 10.6302 163.151 10.7214 163.438 10.8516C163.438 10.3307 163.424 9.78385 163.398 9.21094C163.398 8.63802 163.385 8.09115 163.359 7.57031C163.359 7.02344 163.346 6.52865 163.32 6.08594C163.32 5.61719 163.307 5.23958 163.281 4.95312L160.43 4.5625L160.352 2.72656L168.32 0.695312L169.531 1.4375C169.453 3.05208 169.362 4.52344 169.258 5.85156C169.18 7.15365 169.141 8.53385 169.141 9.99219L169.102 19.0938C169.102 20.3177 169.128 21.3073 169.18 22.0625C169.258 22.7917 169.323 23.5078 169.375 24.2109L171.992 24.7188V26.5547L164.883 28.5078ZM161.172 24.25C161.458 24.25 161.849 24.1328 162.344 23.8984C162.839 23.6641 163.229 23.2865 163.516 22.7656V13.8984C163.203 13.5599 162.852 13.3255 162.461 13.1953C162.07 13.0391 161.654 12.9609 161.211 12.9609C160.117 12.9609 159.206 13.4557 158.477 14.4453C157.747 15.4089 157.383 16.737 157.383 18.4297C157.383 20.3047 157.76 21.75 158.516 22.7656C159.271 23.7552 160.156 24.25 161.172 24.25Z" fill="url(#paint0_linear_7_227)"/>
<path d="M174.844 28.2344C174.469 28.2344 174.156 28.1172 173.906 27.8828C173.672 27.6484 173.555 27.3516 173.555 26.9922C173.555 26.7578 173.609 26.5547 173.719 26.3828C173.828 26.1953 173.977 26.0469 174.164 25.9375C174.367 25.8281 174.586 25.7734 174.82 25.7734C175.211 25.7734 175.523 25.8906 175.758 26.125C175.992 26.3594 176.109 26.6484 176.109 26.9922C176.109 27.3516 175.992 27.6484 175.758 27.8828C175.523 28.1172 175.219 28.2344 174.844 28.2344ZM182.742 28.1875C181.898 28.1875 181.117 27.9922 180.398 27.6016C179.68 27.2109 179.102 26.6406 178.664 25.8906C178.242 25.1406 178.031 24.2344 178.031 23.1719C178.031 22.1406 178.258 21.2266 178.711 20.4297C179.164 19.6172 179.781 18.9766 180.562 18.5078C181.344 18.0391 182.211 17.8047 183.164 17.8047C183.852 17.8047 184.414 17.8906 184.852 18.0625C185.305 18.2188 185.641 18.4297 185.859 18.6953C186.094 18.9609 186.211 19.2344 186.211 19.5156C186.211 19.75 186.141 19.9453 186 20.1016C185.875 20.2422 185.68 20.3125 185.414 20.3125C185.164 20.3125 184.953 20.2656 184.781 20.1719C184.625 20.0781 184.414 19.8906 184.148 19.6094L183.094 18.4844L183.82 18.7188C183.164 18.5781 182.523 18.6406 181.898 18.9062C181.289 19.1562 180.781 19.6172 180.375 20.2891C179.969 20.9453 179.766 21.7969 179.766 22.8438C179.766 24.1094 180.094 25.0859 180.75 25.7734C181.406 26.4609 182.219 26.8047 183.188 26.8047C183.828 26.8047 184.359 26.6953 184.781 26.4766C185.219 26.2578 185.633 25.9062 186.023 25.4219L186.609 25.9141C186.172 26.6797 185.633 27.25 184.992 27.625C184.352 28 183.602 28.1875 182.742 28.1875ZM192.586 28.1875C191.586 28.1875 190.711 27.9688 189.961 27.5312C189.227 27.0938 188.656 26.4844 188.25 25.7031C187.844 24.9062 187.641 24 187.641 22.9844C187.641 21.9531 187.859 21.0547 188.297 20.2891C188.75 19.5078 189.359 18.8984 190.125 18.4609C190.891 18.0234 191.734 17.8047 192.656 17.8047C193.609 17.8047 194.438 18.0156 195.141 18.4375C195.844 18.8594 196.391 19.4609 196.781 20.2422C197.172 21.0078 197.367 21.8984 197.367 22.9141C197.367 23.8984 197.156 24.7891 196.734 25.5859C196.312 26.3672 195.734 27 195 27.4844C194.281 27.9531 193.477 28.1875 192.586 28.1875ZM192.797 27.2031C193.375 27.2031 193.875 27.0312 194.297 26.6875C194.719 26.3438 195.047 25.875 195.281 25.2812C195.531 24.6875 195.656 24.0156 195.656 23.2656C195.656 21.9219 195.359 20.8359 194.766 20.0078C194.172 19.1641 193.398 18.7422 192.445 18.7422C191.539 18.7422 190.805 19.1094 190.242 19.8438C189.68 20.5625 189.398 21.5234 189.398 22.7266C189.398 23.6172 189.547 24.3984 189.844 25.0703C190.141 25.7422 190.547 26.2656 191.062 26.6406C191.578 27.0156 192.156 27.2031 192.797 27.2031ZM199.219 28L199.172 27.2266L200.625 26.875C200.641 26.75 200.648 26.6094 200.648 26.4531C200.664 26.2969 200.672 26.0547 200.672 25.7266C200.688 25.3984 200.695 24.9375 200.695 24.3438L200.719 22.4922C200.734 22.1484 200.734 21.7969 200.719 21.4375C200.703 21.0625 200.68 20.7188 200.648 20.4062C200.617 20.0781 200.586 19.8359 200.555 19.6797L199.055 19.3516V18.6484L201.914 17.8516L202.242 18.2031L202.125 19.4688L202.195 19.4922C202.68 18.8828 203.18 18.4531 203.695 18.2031C204.211 17.9375 204.734 17.8047 205.266 17.8047C205.797 17.8047 206.32 17.9531 206.836 18.25C207.352 18.5312 207.781 18.9766 208.125 19.5859C208.469 20.1953 208.641 20.9766 208.641 21.9297V24.4141C208.641 24.9922 208.656 25.5078 208.688 25.9609C208.719 26.3984 208.75 26.7031 208.781 26.875L210.211 27.2266L210.164 28H205.875L205.828 27.2266L207.117 26.875C207.133 26.75 207.148 26.6094 207.164 26.4531C207.18 26.2812 207.188 26.0547 207.188 25.7734C207.203 25.4766 207.211 25.0938 207.211 24.625L207.188 21.9297C207.188 21.2422 207.07 20.6875 206.836 20.2656C206.617 19.8281 206.328 19.5156 205.969 19.3281C205.609 19.125 205.227 19.0234 204.82 19.0234C204.305 19.0234 203.82 19.1484 203.367 19.3984C202.93 19.6328 202.531 20.0234 202.172 20.5703V24.1328C202.172 24.8984 202.18 25.5 202.195 25.9375C202.227 26.375 202.25 26.6875 202.266 26.875L203.672 27.2266L203.625 28H199.219ZM212.273 28L212.227 27.2266L213.562 26.875C213.578 26.75 213.586 26.6094 213.586 26.4531C213.602 26.2812 213.617 26.0547 213.633 25.7734C213.648 25.4766 213.656 25.0938 213.656 24.625L213.68 21.9297C213.68 21.2109 213.555 20.6406 213.305 20.2188C213.055 19.7969 212.742 19.4922 212.367 19.3047C211.992 19.1172 211.625 19.0234 211.266 19.0234C210.688 19.0234 210.156 19.1719 209.672 19.4688C209.203 19.75 208.773 20.1953 208.383 20.8047L208.008 19.9609C208.555 19.1953 209.133 18.6484 209.742 18.3203C210.352 17.9766 210.992 17.8047 211.664 17.8047C212.289 17.8047 212.859 17.9531 213.375 18.25C213.906 18.5469 214.328 18.9844 214.641 19.5625C214.953 20.1406 215.109 20.8516 215.109 21.6953V24.4141C215.109 24.9922 215.117 25.5078 215.133 25.9609C215.164 26.3984 215.195 26.7031 215.227 26.875L216.68 27.2266L216.633 28H212.273Z" fill="url(#paint1_linear_7_227)"/>
<defs>
<linearGradient id="paint0_linear_7_227" x1="4.06057e-07" y1="14" x2="218" y2="14" gradientUnits="userSpaceOnUse">
<stop stop-color="#3B7DFF"/>
<stop offset="1" stop-color="#003BAF"/>
</linearGradient>
<linearGradient id="paint1_linear_7_227" x1="4.06057e-07" y1="14" x2="218" y2="14" gradientUnits="userSpaceOnUse">
<stop stop-color="#3B7DFF"/>
<stop offset="0.787614" stop-color="#003BAF"/>
<stop offset="0.787714" stop-color="#0C49C0"/>
<stop offset="1" stop-color="#3B7DFF"/>
</linearGradient>
</defs>
</svg>
