<svg width="48" height="48" viewBox="0 0 48 48" fill="none" xmlns="http://www.w3.org/2000/svg">
<rect width="48" height="48" rx="6" fill="white"/>
<path d="M34.3438 12.875L35.2422 19.7891L32.8594 19.9844L31.2969 15.4922C31.0365 15.4401 30.75 15.4141 30.4375 15.4141C30.151 15.388 29.8385 15.375 29.5 15.375H28.2109C27.9766 15.375 27.7031 15.375 27.3906 15.375C27.1042 15.375 26.8828 15.401 26.7266 15.4531C26.7266 15.6094 26.7135 16.0911 26.6875 16.8984C26.6615 17.7057 26.6354 18.6693 26.6094 19.7891C26.6094 20.8828 26.6094 22.0156 26.6094 23.1875V26.8203C26.6094 28.2786 26.6224 29.6068 26.6484 30.8047C26.7005 31.9766 26.7396 32.849 26.7656 33.4219L30.1641 33.9688L30.0469 36H17.8984L17.7812 33.9688L21.1797 33.4219C21.2057 32.849 21.2318 31.9766 21.2578 30.8047C21.2839 29.6068 21.2969 28.2786 21.2969 26.8203V23.1875C21.2969 22.0156 21.2839 20.8828 21.2578 19.7891C21.2578 18.6693 21.2578 17.7057 21.2578 16.8984C21.2578 16.0911 21.2448 15.6094 21.2188 15.4531C21.0625 15.401 20.8281 15.375 20.5156 15.375C20.2292 15.375 19.9688 15.375 19.7344 15.375H18.3672C18.0286 15.375 17.7031 15.388 17.3906 15.4141C17.0781 15.4141 16.7786 15.4401 16.4922 15.4922L15.0469 20.0625L12.625 19.8281L13.4453 12.875C13.7057 12.875 14.0703 12.888 14.5391 12.9141C15.0078 12.9401 15.5156 12.9661 16.0625 12.9922C16.6094 13.0182 17.1302 13.0443 17.625 13.0703C18.1458 13.0703 18.5755 13.0703 18.9141 13.0703H28.875C29.2135 13.0703 29.6302 13.0703 30.125 13.0703C30.6458 13.0443 31.1797 13.0182 31.7266 12.9922C32.2734 12.9661 32.7682 12.9401 33.2109 12.9141C33.6797 12.888 34.0573 12.875 34.3438 12.875Z" fill="url(#paint0_linear_76_3)"/>
<defs>
<linearGradient id="paint0_linear_76_3" x1="12" y1="22" x2="36" y2="22" gradientUnits="userSpaceOnUse">
<stop stop-color="#3B7DFF"/>
<stop offset="1" stop-color="#003BAF"/>
</linearGradient>
</defs>
</svg>
