<svg width="590" height="476" viewBox="0 0 590 476" fill="none" xmlns="http://www.w3.org/2000/svg">
<path d="M256.17 156.056C276.666 156.056 293.281 139.442 293.281 118.946C293.281 98.4509 276.666 81.8362 256.17 81.8362C235.675 81.8362 219.06 98.4509 219.06 118.946C219.06 139.442 235.675 156.056 256.17 156.056Z" fill="#FF6884"/>
<path d="M0 281.435C0 281.967 0.427403 282.394 0.959634 282.394H589.04C589.573 282.394 590 281.967 590 281.435C590 280.902 589.573 280.475 589.04 280.475H0.959634C0.427403 280.475 0 280.902 0 281.435Z" fill="#3B7DFF"/>
<g filter="url(#filter0_d_7_13)">
<path d="M376.564 77.8043L379.65 117.277L424.369 98.5985L399.143 58.4515L376.564 77.8043Z" fill="#A0616A"/>
<path d="M375.225 89.83C393.635 89.83 408.559 74.9059 408.559 56.496C408.559 38.0861 393.635 23.1619 375.225 23.1619C356.815 23.1619 341.89 38.0861 341.89 56.496C341.89 74.9059 356.815 89.83 375.225 89.83Z" fill="#A0616A"/>
<path d="M312.861 367.29L318.506 417.92L278.993 412.447L291.895 365.677L312.861 367.29Z" fill="#A0616A"/>
<path d="M466.878 374.547L472.523 425.177L433.011 419.704L445.913 372.935L466.878 374.547Z" fill="#A0616A"/>
<path d="M372.936 221.741C372.396 221.741 329.274 223.906 300.784 225.34C287.299 226.018 277.034 237.689 278.081 251.15L288.266 382.208L317.296 383.014L318.004 277.38L375.355 280.606L372.936 221.741Z" fill="#2F2E41"/>
<path d="M499.537 220.935C499.537 220.935 506.794 276.574 501.149 282.218C495.505 287.863 318.505 277.783 318.505 277.783C318.505 277.783 357.335 221.711 364.329 220.113C371.323 218.515 482.603 212.871 482.603 212.871L499.537 220.935Z" fill="#2F2E41"/>
<path d="M270.238 150.883C263.497 141.456 262.897 130.337 268.898 126.048C274.898 121.76 285.224 125.926 291.966 135.357C294.71 139.087 296.522 143.421 297.248 147.995L325.304 188.298L309.338 199.352L280.49 159.974C276.396 157.806 272.88 154.689 270.238 150.883V150.883Z" fill="#A0616A"/>
<path d="M375.508 278.921C365.229 284.273 354.135 283.308 350.73 276.766C347.325 270.224 352.897 260.584 363.181 255.231C367.259 253.036 371.804 251.85 376.434 251.772L420.273 229.644L428.98 247.003L385.946 270.044C383.225 273.794 379.646 276.838 375.508 278.921Z" fill="#A0616A"/>
<path d="M374.952 102.802L416.077 85.868L493.489 205.21C493.489 205.21 439.462 217.306 420.915 219.725C402.369 222.144 381.403 212.468 381.403 212.468L374.952 102.802Z" fill="#E6E6E6"/>
<path d="M424.947 122.961L410.029 76.4266L429.382 91.1094C429.382 91.1094 484.215 127.396 484.215 142.717C484.215 158.038 501.149 204.807 501.149 204.807C501.149 204.807 520.099 220.531 513.648 235.046C507.197 249.561 522.115 247.545 523.728 258.027C525.341 268.51 500.746 282.622 500.746 282.622C500.746 282.622 494.698 223.354 475.345 223.354C455.992 223.354 424.947 122.961 424.947 122.961Z" fill="#3F3D56"/>
<path d="M377.842 101.612L357.615 109.656C357.615 109.656 360.84 166.102 364.066 170.94C367.291 175.778 378.58 201.582 378.58 201.582V209.991C378.58 209.991 356.002 216.903 356.808 220.934C357.615 224.966 410.029 236.255 410.029 236.255C410.029 236.255 399.546 204.001 393.095 193.518C386.644 183.035 377.842 101.612 377.842 101.612Z" fill="#3F3D56"/>
<path d="M425.35 90.303C425.35 90.303 470.507 87.8839 480.184 112.075C489.86 136.266 497.924 215.29 497.924 215.29L399.546 268.812L382.612 242.706L448.735 191.099L425.35 90.303Z" fill="#3F3D56"/>
<path d="M364.872 109.656C364.872 109.656 341.487 106.43 337.455 133.847C333.424 161.263 335.986 164.892 335.986 164.892L329.392 180.616L307.62 156.425L286.654 170.133C286.654 170.133 324.553 231.417 339.875 229.805C355.196 228.192 377.774 183.842 377.774 183.842L364.872 109.656Z" fill="#3F3D56"/>
<path d="M481.666 229.836L469.701 399.142L438.655 397.932C438.655 397.932 431.801 237.868 431.801 235.449C431.801 233.03 435.027 219.322 455.186 218.515C475.345 217.709 481.666 229.836 481.666 229.836Z" fill="#2F2E41"/>
<path d="M436.639 402.367C436.639 402.367 452.767 397.529 455.186 400.754C457.605 403.98 471.313 405.592 471.313 405.592L475.345 445.104C475.345 445.104 464.056 453.168 462.443 454.781C460.831 456.394 418.093 458.006 417.286 448.33C416.48 438.653 428.576 426.558 428.576 426.558L436.639 402.367Z" fill="#2F2E41"/>
<path d="M318.102 391.078C318.102 391.078 322.941 387.046 324.553 398.335C326.166 409.624 331.811 428.171 323.747 430.59C315.683 433.009 235.046 433.815 235.046 426.558V419.301L242.303 413.656L256.821 411.343C256.821 411.343 285.041 385.433 288.266 385.433C291.492 385.433 301.975 395.916 301.975 395.916L318.102 391.078Z" fill="#2F2E41"/>
<path d="M408.013 74.5789C408.013 74.5789 391.886 55.2261 385.435 56.8388C378.984 58.4516 383.016 60.8707 383.016 60.8707L366.888 43.1306C366.888 43.1306 353.986 38.2924 341.89 53.6134C341.89 53.6134 334.633 40.7115 341.89 33.4542C349.148 26.1969 351.567 27.0033 353.18 22.9714C354.792 18.9396 366.082 15.7141 366.082 15.7141C366.082 15.7141 365.434 9.91081 368.983 12.8125C372.533 15.7141 381.396 15.7141 381.396 15.7141C381.396 15.7141 381.447 12.4886 385.054 15.7141C388.66 18.9396 392.692 17.3268 392.692 17.3268C392.692 17.3268 392.692 22.9079 395.514 22.9397C398.337 22.9714 403.175 18.9396 403.981 22.165C404.788 25.3905 410.432 27.0033 411.239 36.6797C412.045 46.3561 408.013 74.5789 408.013 74.5789Z" fill="#2F2E41"/>
</g>
<path d="M229.884 98.454H98.5917C90.7829 98.454 84.4525 104.784 84.4525 112.593V112.593C84.4525 120.402 90.7829 126.732 98.5917 126.732H229.884C237.693 126.732 244.024 120.402 244.024 112.593C244.024 104.784 237.693 98.454 229.884 98.454Z" fill="#3F3D56"/>
<path d="M230.053 36.6797H101.117V178.071H230.053V36.6797Z" fill="white"/>
<path d="M230.86 178.877H100.31V35.8733H230.86V178.877ZM101.923 177.264H229.247V37.486H101.923V177.264Z" fill="#3F3D56"/>
<path d="M238.301 118.989H92.8687C82.4569 118.989 74.0165 127.43 74.0165 137.841V137.841C74.0165 148.253 82.4569 156.694 92.8687 156.694H238.301C248.713 156.694 257.153 148.253 257.153 137.841C257.153 127.43 248.713 118.989 238.301 118.989Z" fill="#3F3D56"/>
<path d="M267.926 150.297C269.785 150.297 271.292 145.248 271.292 139.02C271.292 132.791 269.785 127.742 267.926 127.742C266.066 127.742 264.559 132.791 264.559 139.02C264.559 145.248 266.066 150.297 267.926 150.297Z" fill="#3F3D56"/>
<path d="M59.204 148.951C61.4351 148.951 63.2437 144.052 63.2437 138.01C63.2437 131.967 61.4351 127.069 59.204 127.069C56.9729 127.069 55.1642 131.967 55.1642 138.01C55.1642 144.052 56.9729 148.951 59.204 148.951Z" fill="#3F3D56"/>
<path d="M83.4426 136.495H60.2139V138.851H83.4426V136.495Z" fill="#3F3D56"/>
<path d="M265.906 137.505H247.054V140.871H265.906V137.505Z" fill="#3F3D56"/>
<path d="M243.795 284.517H104.376C93.3539 284.517 84.3861 275.549 84.3861 264.527V164.666C84.3861 153.644 93.3539 144.676 104.376 144.676H243.795C254.817 144.676 263.784 153.644 263.784 164.666V264.527C263.784 275.549 254.817 284.517 243.795 284.517Z" fill="#3F3D56"/>
<path d="M99.6018 224.696C102.019 224.696 103.978 222.736 103.978 220.319C103.978 217.902 102.019 215.943 99.6018 215.943C97.1847 215.943 95.2253 217.902 95.2253 220.319C95.2253 222.736 97.1847 224.696 99.6018 224.696Z" fill="#3B7DFF"/>
<path d="M105.661 238.835C108.078 238.835 110.038 236.876 110.038 234.459C110.038 232.042 108.078 230.082 105.661 230.082C103.244 230.082 101.285 232.042 101.285 234.459C101.285 236.876 103.244 238.835 105.661 238.835Z" fill="#3B7DFF"/>
<path d="M110.038 251.627C112.455 251.627 114.414 249.668 114.414 247.251C114.414 244.834 112.455 242.875 110.038 242.875C107.621 242.875 105.661 244.834 105.661 247.251C105.661 249.668 107.621 251.627 110.038 251.627Z" fill="#3B7DFF"/>
<path d="M117.781 264.757C120.198 264.757 122.157 262.797 122.157 260.38C122.157 257.963 120.198 256.004 117.781 256.004C115.364 256.004 113.404 257.963 113.404 260.38C113.404 262.797 115.364 264.757 117.781 264.757Z" fill="#3B7DFF"/>
<path d="M130.573 264.757C132.99 264.757 134.95 262.797 134.95 260.38C134.95 257.963 132.99 256.004 130.573 256.004C128.156 256.004 126.197 257.963 126.197 260.38C126.197 262.797 128.156 264.757 130.573 264.757Z" fill="#3B7DFF"/>
<path d="M143.366 264.757C145.783 264.757 147.742 262.797 147.742 260.38C147.742 257.963 145.783 256.004 143.366 256.004C140.949 256.004 138.99 257.963 138.99 260.38C138.99 262.797 140.949 264.757 143.366 264.757Z" fill="#3B7DFF"/>
<path d="M156.159 264.757C158.576 264.757 160.535 262.797 160.535 260.38C160.535 257.963 158.576 256.004 156.159 256.004C153.742 256.004 151.782 257.963 151.782 260.38C151.782 262.797 153.742 264.757 156.159 264.757Z" fill="#3B7DFF"/>
<path d="M168.951 264.757C171.368 264.757 173.328 262.797 173.328 260.38C173.328 257.963 171.368 256.004 168.951 256.004C166.534 256.004 164.575 257.963 164.575 260.38C164.575 262.797 166.534 264.757 168.951 264.757Z" fill="#3B7DFF"/>
<path d="M181.744 264.757C184.161 264.757 186.12 262.797 186.12 260.38C186.12 257.963 184.161 256.004 181.744 256.004C179.327 256.004 177.367 257.963 177.367 260.38C177.367 262.797 179.327 264.757 181.744 264.757Z" fill="#3B7DFF"/>
<path d="M194.536 264.757C196.953 264.757 198.913 262.797 198.913 260.38C198.913 257.963 196.953 256.004 194.536 256.004C192.119 256.004 190.16 257.963 190.16 260.38C190.16 262.797 192.119 264.757 194.536 264.757Z" fill="#3B7DFF"/>
<path d="M207.329 264.757C209.746 264.757 211.705 262.797 211.705 260.38C211.705 257.963 209.746 256.004 207.329 256.004C204.912 256.004 202.953 257.963 202.953 260.38C202.953 262.797 204.912 264.757 207.329 264.757Z" fill="#3B7DFF"/>
<path d="M220.122 264.757C222.539 264.757 224.498 262.797 224.498 260.38C224.498 257.963 222.539 256.004 220.122 256.004C217.705 256.004 215.745 257.963 215.745 260.38C215.745 262.797 217.705 264.757 220.122 264.757Z" fill="#3B7DFF"/>
<path d="M232.914 264.757C235.331 264.757 237.291 262.797 237.291 260.38C237.291 257.963 235.331 256.004 232.914 256.004C230.497 256.004 228.538 257.963 228.538 260.38C228.538 262.797 230.497 264.757 232.914 264.757Z" fill="#3B7DFF"/>
<path d="M123.066 251.627C125.483 251.627 127.443 249.668 127.443 247.251C127.443 244.834 125.483 242.875 123.066 242.875C120.649 242.875 118.69 244.834 118.69 247.251C118.69 249.668 120.649 251.627 123.066 251.627Z" fill="#3B7DFF"/>
<path d="M136.094 251.627C138.511 251.627 140.471 249.668 140.471 247.251C140.471 244.834 138.511 242.875 136.094 242.875C133.677 242.875 131.718 244.834 131.718 247.251C131.718 249.668 133.677 251.627 136.094 251.627Z" fill="#3B7DFF"/>
<path d="M149.123 251.627C151.54 251.627 153.499 249.668 153.499 247.251C153.499 244.834 151.54 242.875 149.123 242.875C146.706 242.875 144.746 244.834 144.746 247.251C144.746 249.668 146.706 251.627 149.123 251.627Z" fill="#3B7DFF"/>
<path d="M162.151 251.627C164.568 251.627 166.527 249.668 166.527 247.251C166.527 244.834 164.568 242.875 162.151 242.875C159.734 242.875 157.775 244.834 157.775 247.251C157.775 249.668 159.734 251.627 162.151 251.627Z" fill="#3B7DFF"/>
<path d="M175.179 251.627C177.596 251.627 179.556 249.668 179.556 247.251C179.556 244.834 177.596 242.875 175.179 242.875C172.762 242.875 170.803 244.834 170.803 247.251C170.803 249.668 172.762 251.627 175.179 251.627Z" fill="#3B7DFF"/>
<path d="M188.207 251.627C190.625 251.627 192.584 249.668 192.584 247.251C192.584 244.834 190.625 242.875 188.207 242.875C185.79 242.875 183.831 244.834 183.831 247.251C183.831 249.668 185.79 251.627 188.207 251.627Z" fill="#3B7DFF"/>
<path d="M201.236 251.627C203.653 251.627 205.612 249.668 205.612 247.251C205.612 244.834 203.653 242.875 201.236 242.875C198.819 242.875 196.859 244.834 196.859 247.251C196.859 249.668 198.819 251.627 201.236 251.627Z" fill="#3B7DFF"/>
<path d="M214.264 251.627C216.681 251.627 218.641 249.668 218.641 247.251C218.641 244.834 216.681 242.875 214.264 242.875C211.847 242.875 209.888 244.834 209.888 247.251C209.888 249.668 211.847 251.627 214.264 251.627Z" fill="#3B7DFF"/>
<path d="M227.292 251.627C229.709 251.627 231.669 249.668 231.669 247.251C231.669 244.834 229.709 242.875 227.292 242.875C224.875 242.875 222.916 244.834 222.916 247.251C222.916 249.668 224.875 251.627 227.292 251.627Z" fill="#3B7DFF"/>
<path d="M240.321 251.627C242.738 251.627 244.697 249.668 244.697 247.251C244.697 244.834 242.738 242.875 240.321 242.875C237.904 242.875 235.944 244.834 235.944 247.251C235.944 249.668 237.904 251.627 240.321 251.627Z" fill="#3B7DFF"/>
<path d="M118.791 238.835C121.208 238.835 123.167 236.876 123.167 234.459C123.167 232.042 121.208 230.082 118.791 230.082C116.374 230.082 114.414 232.042 114.414 234.459C114.414 236.876 116.374 238.835 118.791 238.835Z" fill="#3B7DFF"/>
<path d="M131.92 238.835C134.337 238.835 136.296 236.876 136.296 234.459C136.296 232.042 134.337 230.082 131.92 230.082C129.503 230.082 127.543 232.042 127.543 234.459C127.543 236.876 129.503 238.835 131.92 238.835Z" fill="#3B7DFF"/>
<path d="M145.049 238.835C147.466 238.835 149.426 236.876 149.426 234.459C149.426 232.042 147.466 230.082 145.049 230.082C142.632 230.082 140.673 232.042 140.673 234.459C140.673 236.876 142.632 238.835 145.049 238.835Z" fill="#3B7DFF"/>
<path d="M158.178 238.835C160.595 238.835 162.555 236.876 162.555 234.459C162.555 232.042 160.595 230.082 158.178 230.082C155.761 230.082 153.802 232.042 153.802 234.459C153.802 236.876 155.761 238.835 158.178 238.835Z" fill="#3B7DFF"/>
<path d="M171.308 238.835C173.725 238.835 175.684 236.876 175.684 234.459C175.684 232.042 173.725 230.082 171.308 230.082C168.891 230.082 166.931 232.042 166.931 234.459C166.931 236.876 168.891 238.835 171.308 238.835Z" fill="#3B7DFF"/>
<path d="M184.437 238.835C186.854 238.835 188.813 236.876 188.813 234.459C188.813 232.042 186.854 230.082 184.437 230.082C182.02 230.082 180.061 232.042 180.061 234.459C180.061 236.876 182.02 238.835 184.437 238.835Z" fill="#3B7DFF"/>
<path d="M197.566 238.835C199.983 238.835 201.943 236.876 201.943 234.459C201.943 232.042 199.983 230.082 197.566 230.082C195.149 230.082 193.19 232.042 193.19 234.459C193.19 236.876 195.149 238.835 197.566 238.835Z" fill="#3B7DFF"/>
<path d="M210.696 238.835C213.113 238.835 215.072 236.876 215.072 234.459C215.072 232.042 213.113 230.082 210.696 230.082C208.278 230.082 206.319 232.042 206.319 234.459C206.319 236.876 208.278 238.835 210.696 238.835Z" fill="#3B7DFF"/>
<path d="M223.825 238.835C226.242 238.835 228.201 236.876 228.201 234.459C228.201 232.042 226.242 230.082 223.825 230.082C221.408 230.082 219.448 232.042 219.448 234.459C219.448 236.876 221.408 238.835 223.825 238.835Z" fill="#3B7DFF"/>
<path d="M236.954 238.835C239.371 238.835 241.33 236.876 241.33 234.459C241.33 232.042 239.371 230.082 236.954 230.082C234.537 230.082 232.578 232.042 232.578 234.459C232.578 236.876 234.537 238.835 236.954 238.835Z" fill="#3B7DFF"/>
<path d="M250.083 238.835C252.501 238.835 254.46 236.876 254.46 234.459C254.46 232.042 252.501 230.082 250.083 230.082C247.666 230.082 245.707 232.042 245.707 234.459C245.707 236.876 247.666 238.835 250.083 238.835Z" fill="#3B7DFF"/>
<path d="M112.731 224.696C115.148 224.696 117.107 222.736 117.107 220.319C117.107 217.902 115.148 215.943 112.731 215.943C110.314 215.943 108.355 217.902 108.355 220.319C108.355 222.736 110.314 224.696 112.731 224.696Z" fill="#3B7DFF"/>
<path d="M125.86 224.696C128.277 224.696 130.237 222.736 130.237 220.319C130.237 217.902 128.277 215.943 125.86 215.943C123.443 215.943 121.484 217.902 121.484 220.319C121.484 222.736 123.443 224.696 125.86 224.696Z" fill="#3B7DFF"/>
<path d="M138.99 224.696C141.407 224.696 143.366 222.736 143.366 220.319C143.366 217.902 141.407 215.943 138.99 215.943C136.573 215.943 134.613 217.902 134.613 220.319C134.613 222.736 136.573 224.696 138.99 224.696Z" fill="#3B7DFF"/>
<path d="M152.119 224.696C154.536 224.696 156.495 222.736 156.495 220.319C156.495 217.902 154.536 215.943 152.119 215.943C149.702 215.943 147.742 217.902 147.742 220.319C147.742 222.736 149.702 224.696 152.119 224.696Z" fill="#3B7DFF"/>
<path d="M165.248 224.696C167.665 224.696 169.625 222.736 169.625 220.319C169.625 217.902 167.665 215.943 165.248 215.943C162.831 215.943 160.872 217.902 160.872 220.319C160.872 222.736 162.831 224.696 165.248 224.696Z" fill="#3B7DFF"/>
<path d="M178.377 224.696C180.794 224.696 182.754 222.736 182.754 220.319C182.754 217.902 180.794 215.943 178.377 215.943C175.96 215.943 174.001 217.902 174.001 220.319C174.001 222.736 175.96 224.696 178.377 224.696Z" fill="#3B7DFF"/>
<path d="M191.507 224.696C193.924 224.696 195.883 222.736 195.883 220.319C195.883 217.902 193.924 215.943 191.507 215.943C189.09 215.943 187.13 217.902 187.13 220.319C187.13 222.736 189.09 224.696 191.507 224.696Z" fill="#3B7DFF"/>
<path d="M204.636 224.696C207.053 224.696 209.012 222.736 209.012 220.319C209.012 217.902 207.053 215.943 204.636 215.943C202.219 215.943 200.26 217.902 200.26 220.319C200.26 222.736 202.219 224.696 204.636 224.696Z" fill="#3B7DFF"/>
<path d="M217.765 224.696C220.182 224.696 222.142 222.736 222.142 220.319C222.142 217.902 220.182 215.943 217.765 215.943C215.348 215.943 213.389 217.902 213.389 220.319C213.389 222.736 215.348 224.696 217.765 224.696Z" fill="#3B7DFF"/>
<path d="M230.895 224.696C233.312 224.696 235.271 222.736 235.271 220.319C235.271 217.902 233.312 215.943 230.895 215.943C228.477 215.943 226.518 217.902 226.518 220.319C226.518 222.736 228.477 224.696 230.895 224.696Z" fill="#3B7DFF"/>
<path d="M244.024 224.696C246.441 224.696 248.4 222.736 248.4 220.319C248.4 217.902 246.441 215.943 244.024 215.943C241.607 215.943 239.647 217.902 239.647 220.319C239.647 222.736 241.607 224.696 244.024 224.696Z" fill="#3B7DFF"/>
<path d="M103.305 180.595C112.787 180.595 120.474 172.909 120.474 163.426C120.474 153.944 112.787 146.258 103.305 146.258C93.8227 146.258 86.1359 153.944 86.1359 163.426C86.1359 172.909 93.8227 180.595 103.305 180.595Z" fill="#3B7DFF"/>
<path d="M242.677 180.595C252.159 180.595 259.846 172.909 259.846 163.426C259.846 153.944 252.159 146.258 242.677 146.258C233.195 146.258 225.508 153.944 225.508 163.426C225.508 172.909 233.195 180.595 242.677 180.595Z" fill="#3B7DFF"/>
<path d="M145.569 156.694H198.548C200.922 156.694 203.086 158.057 204.111 160.199L218.409 190.083C220.367 194.176 217.383 198.911 212.846 198.911H135.322C131.09 198.911 128.116 194.747 129.488 190.744L139.735 160.86C140.59 158.368 142.934 156.694 145.569 156.694V156.694Z" fill="#3B7DFF"/>
<path d="M203.194 57.6452H125.446V59.2579H203.194V57.6452Z" fill="#3F3D56"/>
<path d="M203.194 72.1598H125.446V73.7725H203.194V72.1598Z" fill="#3F3D56"/>
<path d="M203.194 86.6744H125.446V88.2871H203.194V86.6744Z" fill="#3F3D56"/>
<defs>
<filter id="filter0_d_7_13" x="227.046" y="0" width="320.758" height="476" filterUnits="userSpaceOnUse" color-interpolation-filters="sRGB">
<feFlood flood-opacity="0" result="BackgroundImageFix"/>
<feColorMatrix in="SourceAlpha" type="matrix" values="0 0 0 0 0 0 0 0 0 0 0 0 0 0 0 0 0 0 127 0" result="hardAlpha"/>
<feOffset dx="8" dy="4"/>
<feGaussianBlur stdDeviation="8"/>
<feComposite in2="hardAlpha" operator="out"/>
<feColorMatrix type="matrix" values="0 0 0 0 0 0 0 0 0 0 0 0 0 0 0 0 0 0 0.1 0"/>
<feBlend mode="normal" in2="BackgroundImageFix" result="effect1_dropShadow_7_13"/>
<feBlend mode="normal" in="SourceGraphic" in2="effect1_dropShadow_7_13" result="shape"/>
</filter>
</defs>
</svg>
